<?xml version="1.0" encoding="UTF-8" standalone="no"?>
<svg
   xmlns:dc="http://purl.org/dc/elements/1.1/"
   xmlns:cc="http://creativecommons.org/ns#"
   xmlns:rdf="http://www.w3.org/1999/02/22-rdf-syntax-ns#"
   xmlns:svg="http://www.w3.org/2000/svg"
   xmlns="http://www.w3.org/2000/svg"
   xmlns:sodipodi="http://sodipodi.sourceforge.net/DTD/sodipodi-0.dtd"
   xmlns:inkscape="http://www.inkscape.org/namespaces/inkscape"
   width="64"
   height="64"
   viewBox="0 0 16.933333 16.933333"
   version="1.1"
   id="svg8"
   inkscape:version="1.0.1 (c497b03c, 2020-09-10)"
   sodipodi:docname="agriculture_icon.svg">
  <defs
     id="defs2" />
  <sodipodi:namedview
     id="base"
     pagecolor="#ffffff"
     bordercolor="#666666"
     borderopacity="1.0"
     inkscape:pageopacity="0.0"
     inkscape:pageshadow="2"
     inkscape:zoom="1.8175"
     inkscape:cx="94.822648"
     inkscape:cy="85.167585"
     inkscape:document-units="mm"
     inkscape:current-layer="layer1"
     inkscape:document-rotation="0"
     showgrid="false"
     units="px"
     inkscape:window-width="1252"
     inkscape:window-height="957"
     inkscape:window-x="0"
     inkscape:window-y="25"
     inkscape:window-maximized="0" />
  <metadata
     id="metadata5">
    <rdf:RDF>
      <cc:Work
         rdf:about="">
        <dc:format>image/svg+xml</dc:format>
        <dc:type
           rdf:resource="http://purl.org/dc/dcmitype/StillImage" />
        <dc:title></dc:title>
      </cc:Work>
    </rdf:RDF>
  </metadata>
  <g
     inkscape:label="Layer 1"
     inkscape:groupmode="layer"
     id="layer1">
    <path
       style="fill:#000000;stroke:none;stroke-width:0.264583px;stroke-linecap:butt;stroke-linejoin:miter;stroke-opacity:1"
       d="M 15.492067,1.2776773 C 7.5997279,2.2943841 6.4471213,7.9618073 6.8924033,11.6678 6.7387956,12.585714 6.5358921,13.859399 7.000917,15.357244 l 0.7867187,0.298411 C 7.4747428,13.914031 6.3252807,9.7821779 9.9578973,5.9979926 9.030671,7.8740237 8.2164758,9.7003156 8.2216881,12.427397 9.7325504,13.353258 12.374669,10.631039 13.104324,7.4470963 13.983282,3.6116604 13.837828,2.9028936 15.492067,1.2776773 Z"
       id="path874"
       sodipodi:nodetypes="ccccccsc" />
    <path
       style="fill:#000000;stroke:none;stroke-width:0.264583px;stroke-linecap:butt;stroke-linejoin:miter;stroke-opacity:1"
       d="M 1.4412665,5.5703874 C 3.3888606,6.0966372 3.3741056,9.0503257 6.1938499,10.352082 6.2190156,9.5438836 6.2488559,8.7029466 6.4312241,8.0868719 6.1177944,7.7463101 5.9221227,7.4228033 5.4817345,7.0560007 5.8163157,7.1430207 6.2051527,7.4844629 6.5397347,7.7613316 6.6228241,7.4872912 6.7161706,7.1810574 6.8788387,6.8660976 5.3897927,5.2960743 3.4922547,5.1137754 1.4412665,5.5703874 Z"
       id="path876"
       sodipodi:nodetypes="ccccccc" />
  </g>
</svg>
