<?xml-stylesheet type="text/css" href="../css/style.css" ?>
<svg
   xmlns:dc="http://purl.org/dc/elements/1.1/"
   xmlns:cc="http://creativecommons.org/ns#"
   xmlns:rdf="http://www.w3.org/1999/02/22-rdf-syntax-ns#"
   xmlns:svg="http://www.w3.org/2000/svg"
   xmlns="http://www.w3.org/2000/svg"
   width="128"
   height="128"
   viewBox="0 0 33.866666 33.866668"
   version="1.1">
  <g>
    <circle
       class="sdg-circle"
       cx="16.933332"
       cy="16.933332"
       r="15.688075" />
    <path
       class="sdg-drawing"
       d="m 15.278923,24.282989 c -2.446437,-0.222292 -5.2986116,-1.128036 -7.3236666,-2.325723 -2.081276,-1.230939 -4.09052,-2.999905 -5.32849,-4.691277 l -0.252691,-0.345238 0.563229,-0.713095 c 1.539737,-1.949439 3.965712,-3.873926 6.251298,-4.959057 2.2596836,-1.072833 4.4855736,-1.6041834 7.1063206,-1.6963735 4.9854,-0.1753726 9.503186,1.5262295 13.067194,4.9216945 0.788429,0.751144 2.130472,2.287296 2.130472,2.438616 0,0.137716 -0.786203,1.106395 -1.522412,1.87576 -2.971918,3.105758 -6.898178,5.027201 -11.165391,5.464149 -0.818233,0.08378 -2.755253,0.100564 -3.525863,0.03054 z m 2.903403,-1.345291 c 0.679299,-0.140034 1.630296,-0.536176 2.173843,-0.905526 0.313348,-0.212925 0.314474,-0.215753 0.126091,-0.316572 -0.301314,-0.161259 -0.798715,-0.04497 -1.261859,0.295006 l -0.421674,0.309537 -0.828568,-0.268558 c -0.90169,-0.292258 -1.770391,-0.359829 -2.144371,-0.166797 -0.532071,0.27463 -0.826279,0.743379 -0.568032,0.905022 0.436552,0.273248 1.946145,0.349583 2.92457,0.147888 z m 4.340965,-6.732404 c -0.0373,0.02508 0.219112,0.262893 -0.0393,0.671338 -0.173658,0.274489 -0.02095,0.71928 0.100948,0.941751 0.31954,0.583182 0.447302,0.388061 0.469999,-0.717791 0.01255,-0.611618 -0.03574,-0.697393 -0.185235,-0.843173 -0.07643,-0.07454 -0.247815,-0.11844 -0.346416,-0.05213 z m 0.225408,-0.211098 c 0.30487,-0.179563 0.04799,-1.145196 -0.581756,-2.214402 -0.383076,-0.650405 -1.431712,-1.684722 -2.104971,-2.07623 -1.695346,-0.985864 -3.865427,-1.089374 -5.650882,-0.269541 -0.337609,0.155021 -0.613834,0.303626 -0.613834,0.330233 0,0.02661 0.0657,0.151387 0.799629,-0.0059 0.274567,-0.05883 0.550318,-0.01365 0.704243,0.0058 0.336512,0.04247 0.358795,0.217045 0.358795,0.478572 0,0.169711 0.07521,0.296701 0.254,0.428889 0.1397,0.103285 0.254,0.215929 0.254,0.250321 0,0.09068 -0.911506,0.641655 -1.074178,0.632552 -0.250884,-0.01404 -0.211173,-0.209047 0.198875,-0.345927 0.394193,-0.131587 0.452869,-0.402705 0.162018,-0.409243 -0.209471,-0.0047 -0.53476,0.13641 -1.107846,0.220102 -0.143312,0.02093 -0.428694,0.02264 -0.550283,0.05026 -0.905821,0.205802 -1.190291,0.579715 -0.577202,0.857941 0.503708,0.228587 0.693458,0.212022 1.038147,-0.09062 0.173,-0.151896 0.345484,-0.267671 0.392846,-0.225684 0.12937,0.114686 0.02238,0.154854 -0.186766,0.370646 l -0.279772,0.288659 -0.611217,-0.05539 c -0.560799,-0.05082 -0.642604,-0.03699 -0.991714,0.167599 -0.24184,0.141728 -0.390353,0.292359 -0.407536,0.413358 -0.0131,0.09224 -0.01516,0.179846 -0.08848,0.206103 -0.05386,0.01929 -0.156699,-0.01209 -0.277224,-0.01009 -0.555088,0.0093 -0.621172,0.02907 -0.676318,0.202823 -0.07608,0.2397 0.104037,0.538738 0.280644,0.465938 0.05822,-0.024 0.158271,-0.126295 0.326362,-0.175196 0.05689,-0.01655 0.168873,0.0203 0.225992,0.0047 0.225874,-0.06165 0.48163,-0.176299 0.568347,-0.254776 0.211781,-0.191659 0.362597,-0.116732 0.594085,0.295146 0.23306,0.414673 0.367604,0.447421 0.285703,0.06954 0,0 -0.140747,-0.227945 -0.05964,-0.275166 0.07317,-0.0426 0.189304,0.169333 0.189304,0.169333 0.104117,0.09313 0.292006,0.192237 0.412745,0.169333 0.268738,-0.05098 0.264798,0.0307 0.25032,0.189146 -0.01321,0.144569 -0.04089,0.221461 -0.25532,0.323718 -0.272074,0.129742 -0.31464,0.123716 -1.186488,-0.16798 -0.497359,-0.166403 -1.003409,-0.30255 -1.124556,-0.30255 -0.278559,0 -0.605257,0.345031 -0.734199,0.775398 -0.187552,0.625992 0.197523,2.691604 0.535492,2.87248 0.105079,0.05624 0.258499,0.02539 0.530169,-0.106599 0.378479,-0.18388 0.390102,-0.210235 0.58312,-0.06397 0.105147,0.07968 0.259361,0.162847 0.236991,0.400048 -0.0065,0.06913 0.06284,0.114615 0.10657,0.143409 0.03484,0.02295 0.203004,-0.03227 0.241236,-0.03893 0.104573,-0.0182 0.07743,0.124359 0.134494,0.359988 0.04315,0.178185 0.03195,0.344186 0.09633,0.368892 0.03444,0.01322 0.138044,-0.01269 0.170244,0.04972 0.03933,0.07623 0.004,0.252331 0.004,0.39445 0,0.545702 0.190217,0.805338 0.53988,0.736911 0.14545,-0.02846 0.359704,-0.121524 0.47612,-0.206801 l 1e-6,7e-6 c 0.116417,-0.08528 0.293963,-0.361062 0.394547,-0.612855 0.100584,-0.251795 0.224969,-0.504423 0.27641,-0.561398 0.161151,-0.178486 0.260377,-0.528199 0.260377,-0.917677 0,-0.309929 -0.03779,-0.479298 0.250554,-0.70325 0.435238,-0.338041 0.491716,-0.669936 -0.004,-0.856902 -0.417122,-0.15731 -0.773452,-0.930337 -0.63264,-1.082346 0.125752,-0.135753 0.232764,0.12732 0.454482,0.345704 0.434078,0.427551 0.568574,0.466085 0.945845,0.270991 0.450394,-0.232908 0.417237,-0.426909 -0.175102,-1.024561 -0.295258,-0.297907 -0.572408,-0.556139 -0.536455,-0.623118 0.05546,-0.103332 0.186336,0.01821 0.441205,0.194839 0.177971,0.123334 0.356636,0.224244 0.397033,0.224244 0.131679,0 0.383116,0.276757 0.383116,0.421697 0,0.216433 0.335205,0.482796 0.804333,0.639146 0.232833,0.0776 0.520668,0.232604 0.639633,0.344456 0.118964,0.111853 0.260961,0.203368 0.315548,0.203368 0.165293,0 0.381127,-0.411509 0.390584,-0.74469 0.0082,-0.289298 0.02841,-0.389175 0.260196,-0.389175 0.232493,0 0.270899,0.122532 0.513347,0.70379 0.275373,0.66019 0.831323,1.276742 1.151248,1.276742 0.203456,0 0.199417,-0.08046 -0.02746,-0.54744 -0.213392,-0.439226 -0.254829,-0.756876 0.09395,-0.998185 0.08428,-0.05831 0.252293,-0.03596 0.375825,-0.09772 0.432241,-0.216115 0.486612,-0.27066 0.44308,-0.4445 -0.02729,-0.108985 -0.122241,-0.248932 -0.144986,-0.366661 -0.08148,-0.421711 0.09684,-0.436258 0.466912,-0.04876 0.158896,0.166378 0.343658,0.06099 0.451904,-0.0028 z m -2.219797,5.057499 c 0.02841,0.0098 0.06327,0.09327 0.06327,0.147848 0,0.04576 0.04119,0.05558 0.13722,0.05528 0.05758,-1.78e-4 0.03507,-0.09841 0.135029,-0.100285 0.101192,-0.0019 0.202297,0.08107 0.343142,0.07651 0.177562,-0.0057 0.266714,-0.133874 0.521594,-0.449992 0.526153,-0.652568 0.984283,-1.596697 0.912866,-1.881243 -0.09466,-0.377151 -0.262804,-0.462239 -0.575896,-0.238826 -0.244067,0.174159 -0.61751,0.285356 -0.933194,0.338947 -0.83676,0.142049 -1.138753,0.392865 -1.35071,0.801399 -0.154507,0.297804 -0.135283,0.413439 -0.07152,0.697258 0.02302,0.102459 0.123382,0.228004 0.132081,0.305895 0.05388,0.482421 0.105239,0.492856 0.321181,0.423076 0.240455,-0.120241 0.320714,-0.191083 0.364938,-0.175869 z m -4.251105,-2.37956 c -0.01999,-0.140149 -0.09656,-0.127742 -0.258425,-0.04033 -0.37891,0.204623 -0.361744,0.679532 -0.36798,1.077139 -0.004,0.255215 -0.02642,0.393267 0.08662,0.399952 0.129008,0.0076 0.204923,-0.688189 0.337749,-0.92987 0.1667,-0.185226 0.226753,-0.333618 0.202035,-0.506888 z m 5.716345,-0.318326 c -0.03695,-0.19186 -0.457806,-0.345195 -0.588564,-0.214438 -0.17431,0.17431 -0.01325,0.360856 0.311563,0.360856 0.243701,0 0.299516,-0.0295 0.277001,-0.146418 z m -3.388975,-0.462027 c 0.07748,-0.07748 0.06867,-0.135549 -0.03852,-0.254 -0.160216,-0.177035 -0.378518,-0.21304 -0.473343,-0.02906 -0.07668,0.148765 -0.10572,0.271267 0.04312,0.296205 0.33809,0.05665 0.487179,0.03295 0.468744,-0.01314 z m 3.016149,-0.05658 c 0.0746,-0.120698 -0.319766,-0.436444 -0.446943,-0.357844 -0.08815,0.05448 -0.09189,0.109946 -0.01688,0.250104 0.09607,0.179506 0.378869,0.245198 0.463822,0.10774 z m -8.977318,-4.177573 c -0.03606,-0.14979 -0.679609,-0.07211 -0.813421,0.0801 -0.208081,0.23669 -0.499849,0.86589 -0.443672,0.956785 0.06678,0.108055 0.3975,-0.218942 0.536891,-0.360851 0.532102,-0.541715 0.758601,-0.516519 0.720202,-0.676034 z M 12.75347,13.18551 c 0.101136,-0.08046 0.196386,-0.241533 0.211667,-0.35795 0.02284,-0.174018 -0.01161,-0.216237 -0.19371,-0.237363 -0.162639,-0.01887 -0.280752,0.04473 -0.4445,0.239329 -0.122652,0.145765 -0.223004,0.319253 -0.223004,0.38553 0,0.169933 0.422985,0.150694 0.649547,-0.02955 z" />
  </g>
</svg>
