<?xml-stylesheet type="text/css" href="../css/style.css" ?>
<svg
   xmlns:dc="http://purl.org/dc/elements/1.1/"
   xmlns:cc="http://creativecommons.org/ns#"
   xmlns:rdf="http://www.w3.org/1999/02/22-rdf-syntax-ns#"
   xmlns:svg="http://www.w3.org/2000/svg"
   xmlns="http://www.w3.org/2000/svg"
   width="128"
   height="128"
   viewBox="0 0 33.866666 33.866668"
   version="1.1">
  <g>
    <circle
       class="sdg-circle"
       cx="16.933332"
       cy="16.933332"
       r="15.688075" />
    <path
       class="sdg-drawing"
       d="m 16.846385,6.4469385 c -2.429195,0 -4.50317,1.5406009 -5.310698,3.6928765 -2.9665965,0.180317 -5.3312556,2.653411 -5.3312556,5.664041 0,1.780381 0.8286774,3.371143 2.1178342,4.412897 -0.1367161,0.486844 -0.2155606,0.997657 -0.2155606,1.527263 0,3.127227 2.550701,5.67571 5.677931,5.67571 1.167369,0 2.253684,-0.355566 3.157308,-0.96336 0.894118,0.588523 1.961386,0.933914 3.108416,0.933914 3.127227,0 5.675707,-2.548482 5.675709,-5.675708 0,-0.490413 -0.06892,-0.963933 -0.18667,-1.418373 1.292279,-1.042235 2.122834,-2.635645 2.122834,-4.419007 -3e-6,-3.061889 -2.443335,-5.567283 -5.480704,-5.670709 C 21.392246,8.0193837 19.300575,6.4469385 16.846385,6.4469385 Z m 0,1.2789229 c 1.789864,0 3.32045,1.0611248 4.007884,2.5895136 -1.699445,0.346089 -3.123002,1.456704 -3.902326,2.953412 -0.789575,-1.570914 -2.282607,-2.729173 -4.065663,-3.049526 0.707175,-1.476115 2.208296,-2.4933996 3.960105,-2.4933996 z m -4.340117,3.7317666 c 2.136844,0.301764 3.771213,2.123262 3.771213,4.346228 0,0.226862 -0.0222,0.447583 -0.055,0.665018 -2.136847,-0.301764 -3.771212,-2.12326 -3.771212,-4.346228 0,-0.226863 0.0222,-0.447582 0.055,-0.665018 z m -1.296146,0.0072 c -0.02512,0.21608 -0.03945,0.435136 -0.03945,0.657796 0,1.570809 0.643672,2.994853 1.680048,4.023997 -1.723979,0.287361 -3.1874305,1.355926 -4.015664,2.827298 -0.8312629,-0.799071 -1.3494807,-1.920979 -1.3494807,-3.170085 0,-2.206166 1.6111539,-4.016715 3.7245437,-4.339006 z m 11.278639,0.04778 c 2.196658,0.247957 3.89288,2.099292 3.89288,4.364563 0,1.241034 -0.510958,2.357007 -1.332257,3.155085 -0.833084,-1.545497 -2.360811,-2.665159 -4.161224,-2.933412 1.008832,-1.025296 1.633935,-2.429248 1.633935,-3.976218 0,-0.20618 -0.01174,-0.409434 -0.03334,-0.610018 z m -1.286148,0.04278 c 0.02386,0.186158 0.04055,0.374399 0.04055,0.567239 0,2.16735 -1.554423,3.954431 -3.612875,4.322338 -0.02389,-0.186287 -0.04055,-0.374815 -0.04055,-0.567793 0,-2.167342 1.554434,-3.953868 3.612875,-4.321784 z m -1.152253,5.762379 c 1.741658,0 3.236681,1.005613 3.949553,2.467844 -0.602963,0.310335 -1.285972,0.488347 -2.01339,0.488347 -1.741695,0 -3.236699,-1.005562 -3.94955,-2.467845 0.602985,-0.310366 1.285928,-0.488346 2.013387,-0.488346 z m -6.265724,0.02945 c 0.721692,0 1.400006,0.175348 1.9995,0.481124 -0.729944,1.410698 -2.197954,2.372285 -3.901773,2.372286 -0.722159,0 -1.400574,-0.176088 -2.0006085,-0.482234 0.7307225,-1.410192 2.1994345,-2.371176 3.9028815,-2.371176 z m 3.119529,1.295035 c 0.788726,0.794061 1.275589,1.888856 1.275589,3.10175 0,1.198533 -0.476642,2.280026 -1.248924,3.071194 -0.78872,-0.793537 -1.275033,-1.88775 -1.275033,-3.100639 0,-1.198553 0.476067,-2.280618 1.248368,-3.072305 z m -2.465622,2.221171 c -0.04203,0.277734 -0.06389,0.56198 -0.06389,0.851134 0,1.4979 0.589329,2.859218 1.542262,3.875105 -0.63088,0.349157 -1.357126,0.549459 -2.132278,0.549459 -2.435447,0 -4.3967845,-1.959672 -4.3967845,-4.395119 0,-0.278364 0.02875,-0.549595 0.07778,-0.813355 0.7348415,0.348106 1.5519665,0.548903 2.4167335,0.548903 0.91969,0 1.786697,-0.22539 2.55618,-0.616127 z m 4.961801,0.06056 c 0.776762,0.400457 1.654655,0.631128 2.586179,0.631128 0.858207,0 1.66974,-0.197739 2.400065,-0.541125 0.03642,0.228605 0.06112,0.46142 0.06112,0.700575 -4e-6,2.435447 -1.961895,4.395118 -4.397343,4.395118 -0.760634,0 -1.4747,-0.191284 -2.097277,-0.528348 0.932338,-1.011866 1.507261,-2.357757 1.507261,-3.837326 0,-0.278446 -0.02099,-0.552141 -0.06,-0.820022 z" />
  </g>
</svg>
