<?xml-stylesheet type="text/css" href="../css/style.css" ?>
<svg
   xmlns:dc="http://purl.org/dc/elements/1.1/"
   xmlns:cc="http://creativecommons.org/ns#"
   xmlns:rdf="http://www.w3.org/1999/02/22-rdf-syntax-ns#"
   xmlns:svg="http://www.w3.org/2000/svg"
   xmlns="http://www.w3.org/2000/svg"
   width="128"
   height="128"
   viewBox="0 0 33.866666 33.866668"
   version="1.1">
  <g>
    <circle
       class="sdg-circle"
       cx="16.933332"
       cy="16.933332"
       r="15.688075" />
    <path
       class="sdg-drawing"
       d="m 10.371667,24.76642 C 8.1364668,24.143722 6.2219418,23.612383 6.1171668,23.585669 l -0.1905,-0.04857 V 16.614163 9.6912275 l 0.359833,-0.2765713 0.359834,-0.2765704 0.04233,6.9580652 0.04233,6.958066 3.8946672,1.088874 c 2.440151,0.682219 4.043215,1.08919 4.292426,1.08972 0.263189,5.93e-4 1.007947,-0.196933 2.201333,-0.583745 0.991966,-0.321524 2.765599,-0.895092 3.941407,-1.274596 l 2.137834,-0.690007 V 15.910235 9.1360081 l 0.336859,0.2383248 0.336859,0.2383239 0.0018,6.7971572 c 0.0014,5.3647 -0.0205,6.804213 -0.104025,6.830639 -8.121453,2.569338 -8.458398,2.670331 -8.889058,2.664342 -0.297557,-0.0041 -1.794667,-0.382073 -4.509442,-1.138375 z m 16.352986,-1.247407 -0.39332,-1.37956 V 16.235889 10.332324 H 27.135666 27.94 v 5.887386 5.887387 l -0.391344,1.37278 c -0.215239,0.755029 -0.400195,1.383111 -0.411013,1.395738 -0.01082,0.01263 -0.196664,-0.597844 -0.41299,-1.356602 z M 10.879667,23.336595 7.4929998,22.305554 7.4713128,15.718258 7.4496228,9.1309619 7.9475998,9.4141431 c 0.273887,0.1557495 1.854526,1.0642309 3.5125292,2.0188469 l 3.014553,1.735667 0.0017,5.609167 c 0.0013,4.436852 -0.02046,5.607143 -0.104175,5.599489 -0.05821,-0.0053 -1.629834,-0.473646 -3.4925,-1.040718 z m 4.465558,-4.537093 0.02177,-5.607556 2.159,-1.244526 c 1.18745,-0.68449 2.759075,-1.592619 3.4925,-2.0180667 l 1.3335,-0.7735409 -1.69e-4,6.5784226 -1.7e-4,6.578422 -3.329202,0.99885 c -1.831063,0.549367 -3.412406,1.020607 -3.514097,1.047199 l -0.184893,0.04835 0.02177,-5.607556 z M 26.331333,9.055811 c 0,-0.5493622 0.02058,-0.6197567 0.247488,-0.8466667 0.183227,-0.183228 0.327811,-0.2474874 0.556845,-0.2474874 0.229035,0 0.373619,0.064259 0.556846,0.2474874 C 27.919423,8.4360543 27.94,8.5064488 27.94,9.055811 v 0.5991792 h -0.804334 -0.804333 z" />
  </g>
</svg>
