<?xml-stylesheet type="text/css" href="../css/style.css" ?>
<svg
   xmlns:dc="http://purl.org/dc/elements/1.1/"
   xmlns:cc="http://creativecommons.org/ns#"
   xmlns:rdf="http://www.w3.org/1999/02/22-rdf-syntax-ns#"
   xmlns:svg="http://www.w3.org/2000/svg"
   xmlns="http://www.w3.org/2000/svg"
   width="128"
   height="128"
   viewBox="0 0 33.866666 33.866668"
   version="1.1">
  <g>
    <circle
       class="sdg-circle"
       cx="16.933332"
       cy="16.933332"
       r="15.688075" />
    <path
       class="sdg-drawing"
       d="m 18.130739,26.006891 c -0.142325,-0.12492 -0.2791,-0.795923 -0.871777,-4.276868 -0.386631,-2.270787 -0.728811,-4.099587 -0.7604,-4.064 -0.03159,0.03559 -0.190317,0.312352 -0.352728,0.615035 -0.162411,0.302684 -0.611518,1.140884 -0.998014,1.862667 -0.386496,0.721783 -0.759995,1.379008 -0.829997,1.4605 -0.156961,0.182725 -0.467116,0.192164 -0.611161,0.0186 -0.07988,-0.09625 -0.995279,-5.914267 -1.011353,-6.427868 -0.006,-0.192917 -0.193342,0.181872 -0.928767,1.858434 -0.428957,0.9779 -0.841466,1.825625 -0.916685,1.883833 -0.104157,0.0806 -0.9398547,0.105833 -3.5052957,0.105833 h -3.368532 l -0.140962,-0.215134 c -0.112882,-0.17228 -0.122065,-0.25661 -0.0461,-0.423334 l 0.09486,-0.208198 h 3.205495 3.2054957 l 1.121497,-2.518274 c 0.616823,-1.385049 1.165893,-2.546516 1.220153,-2.581036 0.163031,-0.103719 0.452194,-0.07346 0.561961,0.0588 0.05667,0.06828 0.311986,1.582584 0.567364,3.365106 0.255377,1.782524 0.480374,3.257004 0.499993,3.276623 0.05099,0.05099 0.0261,0.09314 0.8205,-1.389551 1.415974,-2.642811 1.34862,-2.537235 1.636703,-2.56549 0.14294,-0.01402 0.301513,0.02466 0.352383,0.08595 0.07468,0.08998 1.374752,7.303911 1.374752,7.628301 0,0.328575 0.248955,-0.3909 0.961287,-2.778099 2.343389,-7.85328 3.874031,-12.8632105 3.962587,-12.9699142 0.05676,-0.068388 0.210209,-0.1088017 0.357837,-0.094243 0.250384,0.024693 0.298793,0.1088949 1.547966,2.6924902 0.709225,1.46685 1.291484,2.764155 1.293911,2.8829 0.0073,0.35549 -0.344077,0.54472 -0.650265,0.350227 -0.05739,-0.03645 -0.535518,-0.960587 -1.062509,-2.053631 -0.526992,-1.093044 -0.990267,-2.0392901 -1.029499,-2.1027689 -0.04689,-0.075863 -0.223973,0.3889925 -0.516734,1.3564289 -0.497037,1.642472 -2.273314,7.536232 -3.633222,12.055178 -0.861696,2.863399 -1.021681,3.259667 -1.316025,3.259667 -0.03625,0 -0.141872,-0.06668 -0.234719,-0.148167 z m 7.201536,-5.884106 c -1.622158,-1.627252 -1.797236,-1.893257 -1.800291,-2.73527 -0.0039,-1.083787 0.721102,-1.900457 1.687212,-1.900457 0.491305,0 0.567638,0.03649 1.310569,0.626449 l 0.309091,0.24545 0.229468,-0.212469 c 0.500944,-0.463835 0.889559,-0.65943 1.310174,-0.65943 0.549852,0 0.903293,0.163881 1.265129,0.586604 0.456286,0.533068 0.59989,1.271028 0.38645,1.985907 -0.0819,0.274298 -0.426743,0.681952 -1.619799,1.914823 -0.833664,0.861483 -1.539624,1.57596 -1.5688,1.587726 -0.02918,0.01177 -0.708317,-0.635933 -1.509203,-1.439333 z"/>
  </g>
</svg>
