<?xml-stylesheet type="text/css" href="../css/style.css" ?>
<svg
   xmlns:dc="http://purl.org/dc/elements/1.1/"
   xmlns:cc="http://creativecommons.org/ns#"
   xmlns:rdf="http://www.w3.org/1999/02/22-rdf-syntax-ns#"
   xmlns:svg="http://www.w3.org/2000/svg"
   xmlns="http://www.w3.org/2000/svg"
   width="128"
   height="128"
   viewBox="0 0 33.866666 33.866668"
   version="1.1">
  <g>
    <circle
       class="sdg-circle"
       cx="16.933332"
       cy="16.933332"
       r="15.688075" />
    <path
       class="sdg-drawing"
       d="m 11.120395,5.8812237 c -0.107351,0 -0.193913,0.086559 -0.193913,0.193913 V 24.617018 c 0,0.107351 0.08656,0.193422 0.193913,0.193422 h 5.364597 c 0.107351,0 0.193912,-0.08607 0.193912,-0.193422 V 6.0751367 c 0,-0.1073539 -0.08656,-0.193913 -0.193912,-0.193913 z m 0.946608,2.5364982 h 1.111214 c 0.0678,0 0.122111,0.05431 0.122111,0.122111 v 1.2553034 c 0,0.0678 -0.05431,0.1226 -0.122111,0.1226 h -1.111214 c -0.0678,0 -0.122111,-0.0548 -0.122111,-0.1226 V 8.5398329 c 0,-0.0678 0.05431,-0.122111 0.122111,-0.122111 z m 2.427574,0 h 1.110727 c 0.0678,0 0.122598,0.05431 0.122598,0.122111 v 1.2553034 c 0,0.0678 -0.05479,0.1226 -0.122598,0.1226 h -1.110727 c -0.0678,0 -0.122601,-0.0548 -0.122598,-0.1226 V 8.5398329 c 0,-0.0678 0.05479,-0.122111 0.122598,-0.122111 z m 8.507257,0.8655247 c -0.05341,0.0095 -0.119762,0.06195 -0.198309,0.160699 l -5.431027,6.8284674 v 8.344605 c 0,0.107348 0.08607,0.193422 0.193425,0.193422 h 5.364597 c 0.107352,0 0.193913,-0.08607 0.193913,-0.193422 V 9.3794706 c -0.0285,-0.0723 -0.06919,-0.105709 -0.122599,-0.09622 z m -0.655005,2.1130144 c 0.03736,0.0054 0.06887,0.03449 0.06887,0.09964 v 1.688556 c 0,0.08334 -0.03632,0.145068 -0.119671,0.145068 h -1.298776 c -0.08334,0 -0.125043,-0.07192 -0.125043,-0.145068 0,-0.03902 -0.0056,-0.06802 0.05617,-0.151418 l 1.313922,-1.594287 c 0.02367,-0.02975 0.06716,-0.04792 0.104528,-0.0425 z m -10.279826,0.223708 h 1.111214 c 0.0678,0 0.122111,0.05479 0.122111,0.1226 v 1.255305 c 0,0.0678 -0.05431,0.122111 -0.122111,0.122111 h -1.111214 c -0.0678,0 -0.122111,-0.05431 -0.122111,-0.122111 v -1.255305 c 0,-0.0678 0.05431,-0.1226 0.122111,-0.1226 z m 2.427574,0 h 1.110727 c 0.0678,0 0.122598,0.05479 0.122598,0.1226 v 1.255305 c 0,0.0678 -0.05479,0.122111 -0.122598,0.122111 h -1.110727 c -0.0678,0 -0.122601,-0.05431 -0.122598,-0.122111 v -1.255305 c 0,-0.0678 0.05479,-0.1226 0.122598,-0.1226 z m 6.304856,2.31914 h 1.450196 c 0.107343,0 0.193912,0.08656 0.193912,0.193912 v 0.883598 c 0,0.107354 -0.08657,0.193425 -0.193912,0.193425 h -1.450196 c -0.107354,0 -0.193912,-0.08607 -0.193912,-0.193425 v -0.883598 c 0,-0.107354 0.08656,-0.193912 0.193912,-0.193912 z m -0.890437,0.601276 c 0.03736,0.0054 0.06887,0.03448 0.06887,0.09964 v 2.28739 c 0,0.08334 -0.03633,0.145069 -0.119667,0.145069 h -1.601614 c -0.08334,0 -0.124555,-0.07192 -0.124555,-0.145069 v -0.230057 c 0,-0.03136 0.0058,-0.06796 0.05568,-0.123578 l 1.617242,-1.990904 c 0.02368,-0.02975 0.06667,-0.04792 0.10404,-0.0425 z m -7.841993,0.282321 h 1.111214 c 0.0678,0 0.122111,0.05431 0.122111,0.122111 v 1.255306 c 0,0.0678 -0.05431,0.1226 -0.122111,0.1226 h -1.111214 c -0.0678,0 -0.122111,-0.0548 -0.122111,-0.1226 v -1.255306 c 0,-0.0678 0.05431,-0.122111 0.122111,-0.122111 z m 2.427574,0 h 1.110727 c 0.0678,0 0.122598,0.05431 0.122598,0.122111 v 1.255306 c 0,0.0678 -0.05479,0.1226 -0.122598,0.1226 h -1.110727 c -0.0678,0 -0.122601,-0.0548 -0.122598,-0.1226 v -1.255306 c 0,-0.0678 0.05479,-0.122111 0.122598,-0.122111 z M 7.209899,15.63548 c -0.075601,-0.0012 -0.1509909,0.03772 -0.2080776,0.1226 l -2.656166,3.520715 c -0.1036499,0.103649 -0.022805,0.329164 0.1484875,0.321886 l 5.4666815,0.0034 c 0.2316006,0 0.2505066,-0.224965 0.1528836,-0.349727 L 7.4189543,15.752704 C 7.3614925,15.678052 7.2855019,15.636689 7.209899,15.63548 Z m 13.589534,0.200752 h 1.450196 c 0.107343,-1e-6 0.193912,0.08656 0.193912,0.193912 v 0.88311 c 0,0.107354 -0.08657,0.193912 -0.193912,0.193912 h -1.450196 c -0.107354,0 -0.193912,-0.08656 -0.193912,-0.193912 v -0.88311 c 0,-0.107354 0.08656,-0.193913 0.193912,-0.193912 z m 3.134355,1.315383 c -0.107351,0 -0.193914,0.08607 -0.193914,0.193424 v 0.93977 c 0,0.107351 0.08656,0.193424 0.193914,0.193424 h 5.439329 c 0.107351,0 0.193913,-0.08607 0.193913,-0.193424 v -0.93977 c 0,-0.107351 -0.08656,-0.193424 -0.193913,-0.193424 z m -5.60247,0.540709 h 1.450193 c 0.107356,0 0.193424,0.08656 0.193424,0.193913 v 0.883598 c 0,0.107354 -0.08607,0.193425 -0.193424,0.193425 h -1.450193 c -0.107354,0 -0.193913,-0.08607 -0.193913,-0.193425 v -0.883598 c 0,-0.107354 0.08656,-0.193913 0.193913,-0.193913 z m 2.468115,0 h 1.450196 c 0.107343,0 0.193912,0.08656 0.193912,0.193913 v 0.883598 c 0,0.107354 -0.08657,0.193425 -0.193912,0.193425 h -1.450196 c -0.107354,0 -0.193912,-0.08607 -0.193912,-0.193425 v -0.883598 c 0,-0.107354 0.08656,-0.193913 0.193912,-0.193913 z m -8.73243,0.332144 h 1.111214 c 0.0678,-10e-7 0.122111,0.05479 0.122111,0.122599 v 1.255305 c 0,0.0678 -0.05431,0.122112 -0.122111,0.122112 h -1.111214 c -0.0678,0 -0.122111,-0.05431 -0.122111,-0.122112 v -1.255305 c 0,-0.0678 0.05431,-0.1226 0.122111,-0.122599 z m 2.427574,0 h 1.110727 c 0.0678,-10e-7 0.122598,0.05479 0.122598,0.122599 v 1.255305 c 0,0.0678 -0.05479,0.122112 -0.122598,0.122112 h -1.110727 c -0.0678,0 -0.122601,-0.05431 -0.122598,-0.122112 v -1.255305 c 0,-0.0678 0.05479,-0.1226 0.122598,-0.122599 z m 9.476333,0.870897 c -0.107351,0 -0.193425,0.08656 -0.193425,0.193914 v 5.527739 c 0,0.107351 0.08607,0.193422 0.193425,0.193422 h 5.364597 c 0.107352,0 0.193913,-0.08607 0.193913,-0.193422 v -5.527739 c 0,-0.107351 -0.08656,-0.193914 -0.193913,-0.193914 z m -5.639592,0.694081 h 1.450193 c 0.107356,0 0.193424,0.08656 0.193424,0.193914 v 0.883109 c 0,0.107355 -0.08607,0.193913 -0.193424,0.193913 h -1.450193 c -0.107354,0 -0.193913,-0.08656 -0.193913,-0.193913 V 19.78336 c 0,-0.107354 0.08656,-0.193914 0.193913,-0.193914 z m 2.468115,0 h 1.450196 c 0.107343,0 0.193912,0.08656 0.193912,0.193914 v 0.883109 c 0,0.107355 -0.08657,0.193913 -0.193912,0.193913 h -1.450196 c -0.107354,0 -0.193912,-0.08656 -0.193912,-0.193913 V 19.78336 c 0,-0.107354 0.08656,-0.193914 0.193912,-0.193914 z m 3.956896,0 h 1.450196 c 0.107354,0 0.193912,0.08656 0.193912,0.193914 v 0.883109 c 0,0.107355 -0.08656,0.193913 -0.193912,0.193913 h -1.450196 c -0.107354,0 -0.193425,-0.08656 -0.193423,-0.193913 V 19.78336 c -2e-6,-0.107354 0.08607,-0.193914 0.193423,-0.193914 z m 2.468116,0 h 1.450195 c 0.107354,0 0.193913,0.08656 0.193913,0.193914 v 0.883109 c 0,0.107355 -0.08656,0.193913 -0.193913,0.193913 h -1.450195 c -0.107354,0 -0.193423,-0.08656 -0.193423,-0.193913 V 19.78336 c 0,-0.107354 0.08607,-0.193914 0.193423,-0.193914 z M 4.5522675,20.07838 c -0.1073512,0 -0.1939128,0.08656 -0.1939128,0.193914 v 4.344724 c 0,0.107351 0.086559,0.193422 0.1939128,0.193422 h 1.6421549 v -2.763623 c 0,-0.107354 0.086072,-0.193914 0.1934225,-0.193914 H 7.999227 c 0.1073561,0 0.1939127,0.08656 0.1939127,0.193914 v 2.763623 h 1.7237248 c 0.1073515,0 0.1939125,-0.08607 0.1939125,-0.193422 v -4.344724 c 0,-0.107351 -0.08656,-0.193914 -0.1939125,-0.193914 z m 7.5147355,1.177154 h 1.111214 c 0.0678,0 0.122111,0.05431 0.122111,0.122112 v 1.255305 c 0,0.0678 -0.05431,0.1226 -0.122111,0.1226 h -1.111214 c -0.0678,0 -0.122111,-0.05479 -0.122111,-0.1226 v -1.255305 c 0,-0.0678 0.05431,-0.122112 0.122111,-0.122112 z m 2.427574,0 h 1.110727 c 0.0678,0 0.122598,0.05431 0.122598,0.122112 v 1.255305 c 0,0.0678 -0.05479,0.1226 -0.122598,0.1226 h -1.110727 c -0.0678,0 -0.122601,-0.05479 -0.122598,-0.1226 v -1.255305 c 0,-0.0678 0.05479,-0.122112 0.122598,-0.122112 z m 3.836741,0.190006 h 1.450193 c 0.107356,0 0.193424,0.08656 0.193424,0.193912 v 0.883599 c 0,0.107355 -0.08607,0.193425 -0.193424,0.193425 h -1.450193 c -0.107354,0 -0.193913,-0.08607 -0.193913,-0.193425 v -0.883599 c 0,-0.107353 0.08656,-0.193912 0.193913,-0.193912 z m 2.468115,0 h 1.450196 c 0.107343,0 0.193912,0.08656 0.193912,0.193912 v 0.883599 c 0,0.107355 -0.08657,0.193425 -0.193912,0.193425 h -1.450196 c -0.107354,0 -0.193912,-0.08607 -0.193912,-0.193425 v -0.883599 c 0,-0.107353 0.08656,-0.193912 0.193912,-0.193912 z m 3.956896,0 h 1.450196 c 0.107354,0 0.193912,0.08656 0.193912,0.193912 v 0.883599 c 0,0.107355 -0.08656,0.193425 -0.193912,0.193425 h -1.450196 c -0.107354,0 -0.193425,-0.08607 -0.193423,-0.193425 v -0.883599 c -2e-6,-0.107353 0.08607,-0.193912 0.193423,-0.193912 z m 2.468116,0 h 1.450195 c 0.107354,0 0.193913,0.08656 0.193913,0.193912 v 0.883599 c 0,0.107355 -0.08656,0.193425 -0.193913,0.193425 h -1.450195 c -0.107354,0 -0.193423,-0.08607 -0.193423,-0.193425 v -0.883599 c 0,-0.107353 0.08607,-0.193912 0.193423,-0.193912 z" />
  </g>
</svg>
