<?xml-stylesheet type="text/css" href="../css/style.css" ?>
<svg
   xmlns:dc="http://purl.org/dc/elements/1.1/"
   xmlns:cc="http://creativecommons.org/ns#"
   xmlns:rdf="http://www.w3.org/1999/02/22-rdf-syntax-ns#"
   xmlns:svg="http://www.w3.org/2000/svg"
   xmlns="http://www.w3.org/2000/svg"
   width="128"
   height="128"
   viewBox="0 0 33.866666 33.866668"
   version="1.1">
  <g>
    <circle
       class="sdg-circle"
       cx="16.933332"
       cy="16.933332"
       r="15.688075" />
    <path
       class="sdg-drawing"
       d="m 16.933334,4.7878187 -4.17494,4.2700234 h 8.349877 z M 9.0320051,12.758391 4.761982,16.93333 9.0320051,21.108269 Z m 15.8026549,0 v 8.349878 l 4.270023,-4.174939 z m -12.157914,0.08527 c -0.05978,0 -0.108005,0.04822 -0.108005,0.108003 v 2.530595 c 0,0.05978 0.04822,0.108004 0.108005,0.108004 h 8.513175 c 0.05977,0 0.107487,-0.04822 0.107487,-0.108004 v -2.530595 c 0,-0.05978 -0.04771,-0.108003 -0.107487,-0.108003 z m 0,5.432226 c -0.05978,0 -0.108005,0.04822 -0.108005,0.108004 v 2.531111 c 0,0.05977 0.04822,0.108004 0.108005,0.108004 h 8.513175 c 0.05977,0 0.107487,-0.04822 0.107487,-0.108004 v -2.531111 c 0,-0.05977 -0.04771,-0.108004 -0.107487,-0.108004 z m 0.08165,6.532418 4.17494,4.270541 4.174937,-4.270541 z" />
  </g>
</svg>
