<?xml version="1.0" encoding="UTF-8" standalone="no"?>
<svg
   xmlns:dc="http://purl.org/dc/elements/1.1/"
   xmlns:cc="http://creativecommons.org/ns#"
   xmlns:rdf="http://www.w3.org/1999/02/22-rdf-syntax-ns#"
   xmlns:svg="http://www.w3.org/2000/svg"
   xmlns="http://www.w3.org/2000/svg"
   xmlns:sodipodi="http://sodipodi.sourceforge.net/DTD/sodipodi-0.dtd"
   xmlns:inkscape="http://www.inkscape.org/namespaces/inkscape"
   width="128"
   height="128"
   viewBox="0 0 33.866666 33.866668"
   version="1.1"
   id="svg8"
   inkscape:version="1.0.1 (c497b03c, 2020-09-10)"
   sodipodi:docname="goal_9.svg">
  <defs
     id="defs2" />
  <sodipodi:namedview
     id="base"
     pagecolor="#ffffff"
     bordercolor="#666666"
     borderopacity="1.0"
     inkscape:pageopacity="0.0"
     inkscape:pageshadow="2"
     inkscape:zoom="1.5325347"
     inkscape:cx="298.23291"
     inkscape:cy="69.790921"
     inkscape:document-units="mm"
     inkscape:current-layer="layer1"
     inkscape:document-rotation="0"
     showgrid="false"
     inkscape:snap-global="false"
     units="px"
     inkscape:window-width="1440"
     inkscape:window-height="872"
     inkscape:window-x="0"
     inkscape:window-y="28"
     inkscape:window-maximized="0" />
  <metadata
     id="metadata5">
    <rdf:RDF>
      <cc:Work
         rdf:about="">
        <dc:format>image/svg+xml</dc:format>
        <dc:type
           rdf:resource="http://purl.org/dc/dcmitype/StillImage" />
        <dc:title></dc:title>
      </cc:Work>
    </rdf:RDF>
  </metadata>
  <g
     inkscape:label="Layer 1"
     inkscape:groupmode="layer"
     id="layer1">
    <circle
       style="fill:none;stroke:#ff8200;stroke-width:1.05833;stroke-linecap:round;stroke-miterlimit:4;stroke-dasharray:none;stroke-opacity:1"
       id="path833"
       cx="16.933332"
       cy="16.933332"
       r="15.688075" />
    <path
       style="opacity:1;fill:#ff8200;fill-opacity:1;stroke-width:0.0846667"
       d="m 9.5877068,25.603608 c -1.32715,-0.77101 -2.4429,-1.481581 -2.518833,-1.539513 -0.156149,-0.119132 -0.09057,-0.242842 -0.09057,-2.974534 0,-3.165782 -0.036,-2.890018 0.121789,-2.981118 0.08483,-0.04898 1.170752,-0.710443 2.434167,-1.439746 l 2.2971172,-1.326005 c -0.002,-1.855924 -0.0045,-3.711847 -0.0069,-5.5677695 0,0 1.690947,-1.0094451 2.546891,-1.4960503 2.301421,-1.308361 2.41284,-1.4298899 2.624667,-1.4183038 0.09313,7.62e-4 1.274233,0.6407794 2.624666,1.4221841 l 2.455334,1.4207371 0.04233,2.8229824 0.04233,2.822982 2.370667,1.368136 2.370666,1.368136 v 3.027454 3.027455 l -2.476196,1.433074 c -1.361909,0.788191 -2.524732,1.433074 -2.584052,1.433074 -0.05932,0 -1.135781,-0.594508 -2.392136,-1.321129 -1.256355,-0.726621 -2.329385,-1.33933 -2.384511,-1.361575 -0.05513,-0.02224 -1.139034,0.559947 -2.408686,1.293758 -1.269651,0.733812 -2.386598,1.34622 -2.482104,1.360905 -0.105395,0.01621 -1.122082,-0.524293 -2.5866482,-1.375134 z M 11.831377,21.292807 9.7570438,20.08949 c -1.140887,-0.661824 -2.103496,-1.20498 -2.139135,-1.207012 -0.03564,-0.002 -0.02707,2.389265 -0.02707,2.389265 l 0.0072,2.453999 2.074333,1.205121 c 1.1408832,0.662817 2.1035232,1.179457 2.1392002,1.148088 0.03568,-0.03137 0.01697,-0.326489 0.0027,-1.817116 z m 2.920997,3.553472 c 0.861483,-0.496961 1.575247,-0.912038 1.586143,-0.922395 0.01089,-0.01036 -0.732055,-0.45233 -1.651,-0.982162 -0.918946,-0.529832 -1.794635,-1.035856 -1.945976,-1.124498 l -0.275167,-0.161167 v 2.255599 2.255599 l 0.359833,-0.208706 c 0.197909,-0.114788 1.064684,-0.615309 1.926167,-1.11227 z m 9.884833,-0.108725 1.7145,-0.987543 v -2.440517 -2.440517 l -0.490189,0.28007 c -0.269604,0.154038 -1.221173,0.699169 -2.114599,1.211403 l -1.624408,0.931333 -0.0021,2.441405 -0.0021,2.441406 0.402167,-0.224749 c 0.221191,-0.123612 1.173691,-0.669143 2.116666,-1.212291 z m -7.966385,-5.831213 c -0.04802,-0.04801 -3.797194,2.137024 -3.793821,2.211057 0.0016,0.03537 0.852855,0.555399 1.891651,1.155623 l 1.888722,1.091317 0.0226,-2.213125 c 0.01243,-1.217218 0.0083,-2.227411 -0.0091,-2.244872 z m 7.273165,0.636455 c 1.141954,-0.65926 2.046078,-1.227957 2.009166,-1.263771 -0.08235,-0.0799 -3.703498,-2.176634 -3.964613,-2.295605 -0.16113,-0.07342 -0.48209,0.08436 -2.281378,1.121466 -1.419672,0.818296 -2.056934,1.228709 -1.979161,1.274631 1.679082,0.991443 4.025424,2.346506 4.07454,2.353136 0.03584,0.0048 0.999493,-0.530598 2.141446,-1.189857 z m -7.276312,-6.227602 c -0.03295,-0.03295 -3.66344,2.038346 -3.799478,2.167702 -0.03511,0.03339 0.803085,0.561346 1.862667,1.173236 l 1.92651,1.112528 0.0226,-2.209286 c 0.01243,-1.215107 0.0069,-2.224987 -0.0123,-2.24418 z m 2.761236,3.233066 c 0.965545,-0.554365 1.727545,-1.033733 1.693333,-1.065261 -0.08184,-0.07542 -3.74375,-2.192216 -3.792383,-2.192216 -0.02062,0 -0.03749,1.014032 -0.03749,2.253404 v 2.253404 l 0.1905,-0.120697 c 0.104775,-0.06638 0.980492,-0.574269 1.946037,-1.128634 z m -3.179079,-3.817812 c 0.01923,-0.06181 -1.555523,-1.004257 -3.381291,-2.023607 l -0.402167,-0.224535 v 2.246599 2.246597 l 1.880111,-1.085194 c 1.034062,-0.596858 1.890568,-1.118795 1.903347,-1.15986 z m 5.246881,-2.206214 c -0.02974,-0.02974 -3.66984,2.042956 -3.796666,2.16185 -0.0319,0.0299 0.806305,0.554622 1.862667,1.166047 l 1.92066,1.111681 0.0226,-2.203862 c 0.01243,-1.212123 0.0083,-2.218196 -0.0093,-2.235716 z"
       id="path906"
       sodipodi:nodetypes="cssssccscscccccccsssssscccssccssccsssscccssccccsscccsccccscsccsssssssssscssssssscssssscccsscsscscc" />
  </g>
</svg>
