<?xml version="1.0" encoding="UTF-8" standalone="no"?>
<svg
   xmlns:dc="http://purl.org/dc/elements/1.1/"
   xmlns:cc="http://creativecommons.org/ns#"
   xmlns:rdf="http://www.w3.org/1999/02/22-rdf-syntax-ns#"
   xmlns:svg="http://www.w3.org/2000/svg"
   xmlns="http://www.w3.org/2000/svg"
   xmlns:sodipodi="http://sodipodi.sourceforge.net/DTD/sodipodi-0.dtd"
   xmlns:inkscape="http://www.inkscape.org/namespaces/inkscape"
   width="128"
   height="128"
   viewBox="0 0 33.866666 33.866668"
   version="1.1"
   id="svg8"
   inkscape:version="1.0.1 (c497b03c, 2020-09-10)"
   sodipodi:docname="goal_14.svg">
  <defs
     id="defs2" />
  <sodipodi:namedview
     id="base"
     pagecolor="#ffffff"
     bordercolor="#666666"
     borderopacity="1.0"
     inkscape:pageopacity="0.0"
     inkscape:pageshadow="2"
     inkscape:zoom="2.1673313"
     inkscape:cx="162.23779"
     inkscape:cy="28.460556"
     inkscape:document-units="mm"
     inkscape:current-layer="layer1"
     inkscape:document-rotation="0"
     showgrid="false"
     inkscape:snap-global="false"
     units="px"
     inkscape:window-width="1440"
     inkscape:window-height="872"
     inkscape:window-x="0"
     inkscape:window-y="28"
     inkscape:window-maximized="0" />
  <metadata
     id="metadata5">
    <rdf:RDF>
      <cc:Work
         rdf:about="">
        <dc:format>image/svg+xml</dc:format>
        <dc:type
           rdf:resource="http://purl.org/dc/dcmitype/StillImage" />
        <dc:title></dc:title>
      </cc:Work>
    </rdf:RDF>
  </metadata>
  <g
     inkscape:label="Layer 1"
     inkscape:groupmode="layer"
     id="layer1">
    <circle
       style="fill:none;stroke:#ff8200;stroke-width:1.05833;stroke-linecap:round;stroke-miterlimit:4;stroke-dasharray:none;stroke-opacity:1"
       id="path833"
       cx="16.933332"
       cy="16.933332"
       r="15.688075" />
    <path
       id="path2098"
       style="opacity:1;fill:#ff8200;fill-opacity:1;stroke-width:0.0846667"
       d="m 16.885829,7.9319572 -0.450104,0.3400309 c -0.812972,0.6137995 -1.16232,0.7273888 -2.220534,0.7219198 -1.054079,-0.00545 -1.453886,-0.1232378 -2.442229,-0.719336 L 11.205555,7.9324739 10.841753,8.2301302 C 10.355918,8.6282362 9.626893,8.952663 8.96073,9.0667716 8.32527,9.1756216 7.502823,9.0672155 6.854398,8.7892692 6.633632,8.6946362 6.418235,8.6385492 6.375875,8.664729 c -0.04236,0.02618 -0.077,0.2669564 -0.077,0.5348511 0,0.4344881 0.02564,0.5056739 0.235646,0.6609415 0.34408,0.2543894 0.901298,0.5256644 1.266074,0.6164994 0.806354,0.200798 1.915056,-0.106458 2.782773,-0.7715287 l 0.547772,-0.4201294 0.505394,0.3798218 c 0.883751,0.6643263 1.831298,0.9109683 2.830836,0.7369063 0.670324,-0.116732 1.354679,-0.4060794 1.918745,-0.8113203 0.226404,-0.1626549 0.442666,-0.2955892 0.480075,-0.2955892 0.03741,0 0.199279,0.097927 0.359667,0.2180745 1.542352,1.155377 3.43318,1.244476 4.769736,0.2247925 0.228013,-0.1739561 0.462066,-0.3512611 0.519864,-0.3942912 0.07193,-0.053551 0.214752,0.015372 0.452168,0.2185913 0.780031,0.6676784 1.875163,1.0620924 2.664439,0.9596314 0.522655,-0.06785 1.180465,-0.350982 1.55856,-0.6707601 0.247176,-0.2090556 0.274918,-0.2786901 0.274918,-0.6857463 0,-0.249229 -0.03086,-0.4721691 -0.06873,-0.495577 -0.03787,-0.023407 -0.322135,0.048942 -0.631486,0.1612305 -1.397743,0.5073531 -2.830108,0.2774744 -3.882967,-0.6237345 -0.28326,-0.242459 -0.371819,-0.2787813 -0.485243,-0.1989543 -0.398772,0.2806565 -1.209238,0.6984036 -1.620054,0.8350911 -0.326896,0.1087654 -0.718228,0.1550293 -1.312582,0.1550293 -0.74867,0 -0.904785,-0.027212 -1.348756,-0.2351277 C 17.83958,8.6341086 17.44977,8.3941295 17.249631,8.2301302 Z m -5.654437,3.2463138 -0.37052,0.297139 c -0.203925,0.163583 -0.618707,0.416102 -0.92139,0.561206 -0.519449,0.24902 -0.604914,0.263996 -1.523939,0.260966 -0.860182,-0.0028 -1.035622,-0.02978 -1.506884,-0.228926 -0.614027,-0.259483 -0.633074,-0.244839 -0.593246,0.453718 0.02515,0.441006 0.03906,0.464463 0.438216,0.731222 0.22679,0.151564 0.588491,0.329975 0.804087,0.396358 1.041149,0.32058 2.296829,-0.0098 3.224609,-0.84801 l 0.313674,-0.283187 0.458888,0.347783 c 0.252466,0.191206 0.668375,0.446607 0.924492,0.567924 1.142396,0.515737 1.997681,0.311453 2.863392,-0.01189 0.294037,-0.124071 0.757864,-0.377904 1.030944,-0.564307 l 0.496609,-0.338997 0.550871,0.369486 c 1.578959,1.058807 3.306519,1.077573 4.663281,0.05064 l 0.549838,-0.416512 0.404628,0.336931 c 1.276334,1.061655 2.779527,1.20753 3.972367,0.385506 l 0.411861,-0.28422 v -0.542086 c 0,-0.316282 -0.03534,-0.534496 -0.08475,-0.524516 -0.04657,0.0094 -0.31333,0.103793 -0.59273,0.209806 -0.415552,0.157675 -0.677887,0.192824 -1.443324,0.194304 -0.910365,0.0018 -0.952793,-0.0066 -1.566312,-0.311092 -0.346834,-0.172152 -0.761193,-0.422761 -0.920874,-0.557072 l -0.29042,-0.24443 -0.577744,0.356051 c -1.614427,0.995361 -3.278029,1.007534 -4.574913,0.03307 -0.243665,-0.183088 -0.471718,-0.332797 -0.506947,-0.332797 -0.03524,0 -0.265144,0.15288 -0.510564,0.339515 -0.850775,0.647001 -1.802267,0.861969 -2.844271,0.643371 -0.683807,-0.143454 -1.35695,-0.425141 -1.914609,-0.801501 z m -4.64571,5.141288 c -0.125775,-0.0037 -0.202039,0.01628 -0.201539,0.06615 3.6e-4,0.03492 0.192323,0.444355 0.426331,0.910022 0.841537,1.674632 1.189218,3.230976 1.013376,4.536673 -0.121314,0.900789 -0.568301,2.25111 -1.059884,3.202906 -0.209188,0.405025 -0.380339,0.768256 -0.380339,0.807186 0,0.114131 0.846371,-0.0059 1.391129,-0.197404 0.276241,-0.09713 0.713849,-0.301317 0.97255,-0.453203 0.618752,-0.36327 1.838233,-1.580272 2.242241,-2.238106 l 0.32091,-0.522965 0.671793,0.49816 c 2.17542,1.612974 4.524505,2.689395 6.464205,2.962093 0.74935,0.10535 1.99386,0.0142 2.88303,-0.211356 1.832882,-0.464949 3.453071,-1.49814 5.219835,-3.328479 0.497112,-0.514999 0.943469,-1.010712 0.992187,-1.101741 0.07512,-0.140369 0.0076,-0.260456 -0.44545,-0.789617 -1.226087,-1.432147 -2.621727,-2.546789 -4.071069,-3.251997 -1.285336,-0.625408 -1.971924,-0.806803 -3.263884,-0.86093 -1.225789,-0.05135 -2.105655,0.08127 -3.283003,0.49506 -1.33409,0.468885 -3.542134,1.69139 -4.63331,2.565219 -0.186266,0.149165 -0.381494,0.296521 -0.433564,0.327111 -0.05582,0.03279 -0.251217,-0.178316 -0.475941,-0.51418 C 10.200467,18.121932 9.355795,17.347575 8.324592,16.827025 7.786499,16.555396 6.963004,16.330765 6.585682,16.319563 Z m 15.252816,2.631364 a 1.3595736,1.3595736 0 0 1 0.01757,0 1.3595736,1.3595736 0 0 1 1.359607,1.359607 1.3595736,1.3595736 0 0 1 -1.359607,1.359606 1.3595736,1.3595736 0 0 1 -1.359606,-1.359606 1.3595736,1.3595736 0 0 1 1.342038,-1.359607 z" />
  </g>
</svg>
