<?xml-stylesheet type="text/css" href="../css/style.css" ?>
<svg
   xmlns:dc="http://purl.org/dc/elements/1.1/"
   xmlns:cc="http://creativecommons.org/ns#"
   xmlns:rdf="http://www.w3.org/1999/02/22-rdf-syntax-ns#"
   xmlns:svg="http://www.w3.org/2000/svg"
   xmlns="http://www.w3.org/2000/svg"
   width="128"
   height="128"
   viewBox="0 0 33.866666 33.866668"
   version="1.1">
  <g>
    <circle
       class="sdg-circle"
       cx="16.933332"
       cy="16.933332"
       r="15.688075" />
    <path
       class="sdg-drawing"
       d="m 28.269039,11.080128 a 0.99944596,0.99944596 0 0 0 -0.996571,0.99939 0.99944596,0.99944596 0 0 0 0.99939,0.999389 0.99944596,0.99944596 0 0 0 0.999392,-0.999389 0.99944596,0.99944596 0 0 0 -0.999392,-0.99939 0.99944596,0.99944596 0 0 0 -0.0028,0 z m -21.9475839,0.01928 a 0.99944596,0.99944596 0 0 0 -0.9965697,0.999391 0.99944596,0.99944596 0 0 0 0.9993904,0.99986 0.99944596,0.99944596 0 0 0 0.9993897,-0.99986 0.99944596,0.99944596 0 0 0 -0.9993897,-0.999391 0.99944596,0.99944596 0 0 0 -0.00285,0 z m 14.0953609,0.510508 a 0.99944596,0.99944596 0 0 0 -0.99704,0.99939 0.99944596,0.99944596 0 0 0 0.999391,0.999393 0.99944596,0.99944596 0 0 0 0.999389,-0.999393 0.99944596,0.99944596 0 0 0 -0.999389,-0.99939 0.99944596,0.99944596 0 0 0 -0.0024,0 z m -5.61464,0.01974 a 0.99944596,0.99944596 0 0 0 -0.996569,0.999389 0.99944596,0.99944596 0 0 0 0.999389,0.999393 0.99944596,0.99944596 0 0 0 0.999391,-0.999393 0.99944596,0.99944596 0 0 0 -0.999391,-0.999389 0.99944596,0.99944596 0 0 0 -0.0028,0 z m 12.608026,1.825792 c -0.833578,0 -1.177689,0.388362 -1.418704,0.853665 -0.09588,0.185134 -0.0818,0.890284 -0.0818,1.794767 0,1.381926 -0.102195,1.81733 0.382644,1.81733 0.484844,0 0.397641,-0.514001 0.387817,-1.716263 -0.0094,-1.152807 -0.06275,-1.245713 0.163589,-1.245713 0.12417,0 0.145376,0.06087 0.144783,0.736616 -4.89e-4,0.555893 -0.01558,1.556664 -4.68e-4,3.034838 l 0.03854,3.761584 0.18192,0.147136 c 0.21569,0.174602 0.463599,0.188301 0.669864,0.03761 0.140524,-0.102648 0.151827,-0.245177 0.188032,-2.368263 0.03741,-2.194895 0.04306,-2.258738 0.192733,-2.258738 0.149694,0 0.154876,0.06384 0.192263,2.258738 0.0362,2.123086 0.04752,2.265615 0.188033,2.368263 0.216326,0.158048 0.535877,0.134291 0.705121,-0.05266 0.138839,-0.153398 0.148734,-0.362396 0.185212,-3.90872 0.03756,-3.654529 -0.07215,-3.746539 0.154184,-3.746539 0.226351,0 0.153716,0.122914 0.153716,1.373575 0.0069,1.196666 -0.02402,1.598744 0.382175,1.598744 0.4062,0 0.388289,-0.333613 0.388289,-1.823913 0,-0.913919 -0.03394,-1.65192 -0.0818,-1.778783 -0.121566,-0.322452 -0.443913,-0.883281 -1.389086,-0.883281 z m -21.0657114,0.01363 c -1.1698168,-0.0015 -1.3020442,0.01243 -1.6170772,0.17158 -0.1886643,0.09531 -0.5547766,0.363182 -0.6693935,0.746955 -0.09155,0.306687 -0.091122,1.723021 -0.102949,3.108174 -0.00138,0.159371 0.064911,0.299159 0.1476048,0.326706 -0.099452,0.67867 -0.6084465,3.258553 -0.7709306,4.134827 -0.1624833,0.876275 -0.021786,0.833321 0.1020082,0.815117 0.1562233,-0.02297 0.1978492,-0.185666 0.6233258,-2.450528 0.2078667,-1.106522 0.358997,-2.069432 0.460678,-2.425145 0.1175362,-0.01628 0.222182,-0.203038 0.2312799,-0.323884 0.0091,-0.125945 0.020216,-0.805062 0.020216,-1.787718 0,-0.660159 -0.026173,-0.805716 0.1847416,-0.805716 0.1420528,0 0.1266234,0.08948 0.1269237,1.246654 1.807e-4,0.560544 0.014576,1.626601 0.014576,2.594371 0,3.584745 0.023715,3.662136 0.1734619,3.811883 0.2081556,0.208155 0.5062242,0.194189 0.7352033,-0.03478 l 0.1889679,-0.18945 v -2.198095 c 0,-2.147172 0.00374,-2.198567 0.1541855,-2.198567 0.1503938,0 0.1537175,0.05119 0.1537175,2.184465 0,2.093506 0.00684,2.193071 0.1598269,2.387538 0.1953036,0.24828 0.5432007,0.270509 0.7648203,0.04889 0.1494937,-0.14974 0.1537151,-0.256617 0.1537151,-3.835383 0,-3.763395 0.017937,-3.998403 0.2834595,-3.778037 0.077485,0.06428 0.1015362,0.406902 0.1015362,1.424813 0,1.335589 6.673e-4,1.339917 0.1828633,1.422933 0.1344663,0.06126 0.2286397,0.05894 0.3563203,-0.0094 0.2020714,-0.108145 0.1610257,-0.15497 0.6557627,0.743666 0.4047343,0.735139 0.4167994,0.879497 0.1523054,1.835666 -0.1053481,0.38094 -0.1917918,0.701751 -0.1917918,0.71264 0,0.01088 0.086827,0.01973 0.1927326,0.01973 0.1907184,0 0.1922614,0.0055 0.1922614,0.687729 0,0.743546 0.082816,0.92982 0.4136727,0.92982 0.300452,0 0.356792,-0.141658 0.356792,-0.901144 0,-0.585337 0.02076,-0.716405 0.115167,-0.716405 0.09379,0 0.11564,0.125693 0.11564,0.667988 0,0.731257 0.09962,0.949561 0.432945,0.949561 0.2604,0 0.337517,-0.218868 0.337517,-0.958025 0,-0.652349 0.0019,-0.659524 0.192263,-0.659524 0.105857,0 0.192732,-0.02622 0.192732,-0.05829 0,-0.03206 -0.08642,-0.369778 -0.191791,-0.750719 -0.105393,-0.38094 -0.191726,-0.782033 -0.192263,-0.891273 -0.0014,-0.289001 0.844399,-1.797922 0.949093,-1.693229 0.125269,0.125266 0.399025,0.09743 0.525548,-0.05313 0.0623,-0.07413 0.263758,-0.64711 0.447518,-1.273446 0.183761,-0.626337 0.363455,-1.157102 0.399566,-1.179432 0.200445,-0.123881 0.110471,0.408063 -0.357259,2.112071 -0.286498,1.043757 -0.537899,1.94183 -0.558455,1.99549 -0.02789,0.07268 0.09243,0.09778 0.47149,0.09778 h 0.509098 v 1.501436 c 0,1.399161 0.01021,1.51259 0.153716,1.656094 0.180448,0.180457 0.448873,0.198501 0.659522,0.04465 0.137951,-0.10073 0.151065,-0.228678 0.172989,-1.655624 0.02258,-1.471726 0.03116,-1.546564 0.173459,-1.546564 0.143181,0 0.149488,0.06653 0.149488,1.515068 0,1.301681 0.01787,1.534615 0.127389,1.655625 0.15871,0.17537 0.469757,0.181969 0.655763,0.01364 0.127481,-0.115327 0.141025,-0.273192 0.141025,-1.656093 v -1.528232 h 0.500635 c 0.275338,0 0.500637,-0.01777 0.500637,-0.03949 0,-0.02171 -0.244904,-0.926267 -0.544354,-2.010064 -0.50156,-1.815263 -0.595135,-2.355587 -0.368073,-2.128523 0.04612,0.04613 0.236582,0.595303 0.423071,1.220328 0.186498,0.625025 0.377061,1.182139 0.423543,1.238191 0.105484,0.127106 0.389512,0.132273 0.512389,0.0094 0.159836,-0.159838 0.103815,-0.495451 -0.303203,-1.818269 -0.593297,-1.92823 -0.509118,-1.944935 -2.221601,-1.940022 -1.385003,0.004 -1.578282,0.112701 -1.822499,0.511917 -0.08719,0.142529 -0.271895,0.819055 -0.494525,1.551265 -0.310651,1.021699 -0.433075,1.328431 -0.52696,1.319517 -0.251203,-0.02382 -0.30533,0.01444 -0.508157,0.36055 -0.353123,0.602548 -0.426522,0.64683 -1.072254,0.64683 -0.6389555,0 -0.689164,-0.02895 -1.0149046,-0.584777 C 9.1547423,17.425244 8.9740715,17.294909 8.8077127,17.398003 8.7124089,17.457087 8.6906869,17.237558 8.6577576,15.87165 8.6208259,14.341557 8.6118086,14.26537 8.4344696,14.016714 8.1038989,13.553225 7.7898996,13.470979 6.3444939,13.46907 Z M 21.110186,14.01437 c -0.159396,-0.0062 -0.341837,-0.0033 -0.550937,0.0061 -1.52521,-0.0075 -1.601769,0.04018 -1.856346,0.428713 -0.150203,0.229251 -0.957084,2.8057 -0.957084,3.055994 0,0.340724 0.404412,0.479393 0.632729,0.217176 0.06455,-0.07413 0.263461,-0.637137 0.441875,-1.251354 0.178401,-0.614219 0.350352,-1.144454 0.382647,-1.178021 0.03228,-0.03356 0.09414,-0.01619 0.137262,0.03854 0.05568,0.07064 -0.08257,0.680911 -0.476192,2.102199 l -0.554694,2.002544 0.484184,0.02257 0.483711,0.02256 0.0235,1.543274 c 0.02187,1.423578 0.03556,1.551616 0.17346,1.652331 0.226514,0.16542 0.554628,0.1365 0.693369,-0.06158 0.09842,-0.140552 0.119871,-0.436963 0.119871,-1.656093 0,-1.433372 0.005,-1.484514 0.153716,-1.484514 0.148575,0 0.154185,0.05138 0.154185,1.515069 0,1.30168 0.01787,1.534614 0.127393,1.655623 0.158707,0.175371 0.470222,0.18197 0.656231,0.01364 0.127471,-0.115327 0.140555,-0.273192 0.140555,-1.656093 v -1.528225 h 0.509097 0.509097 l -0.05266,-0.212006 c -0.02883,-0.116489 -0.276374,-1.02327 -0.550464,-2.015233 -0.474134,-1.715909 -0.550348,-2.190988 -0.308844,-1.92639 0.05519,0.06048 0.248381,0.612692 0.429186,1.226911 0.180803,0.614219 0.363683,1.159854 0.406618,1.212806 0.09128,0.11247 0.357631,0.124683 0.517558,0.0235 0.182379,-0.115373 0.116226,-0.502116 -0.329526,-1.920277 -0.417144,-1.34754 -0.423744,-1.80675 -1.539512,-1.849767 z m 3.426885,2.267669 a 0.80313623,0.80313623 0 0 0 -0.798197,0.803367 0.80313623,0.80313623 0 0 0 0.802898,0.802896 0.80313623,0.80313623 0 0 0 0.803367,-0.802896 0.80313623,0.80313623 0 0 0 -0.803367,-0.803367 0.80313623,0.80313623 0 0 0 -0.0047,0 z m -14.15365,0.01974 a 0.80313623,0.80313623 0 0 0 -0.7986667,0.802898 0.80313623,0.80313623 0 0 0 0.8028957,0.803368 0.80313623,0.80313623 0 0 0 0.803367,-0.803368 0.80313623,0.80313623 0 0 0 -0.803367,-0.802898 0.80313623,0.80313623 0 0 0 -0.0042,0 z m 14.172452,1.876091 c -0.549008,0.0033 -0.810477,-0.02091 -0.960845,0.09213 -0.331853,0.249478 -0.474664,0.799232 -0.761999,1.578532 -0.168607,0.400645 -0.314071,0.742129 -0.0912,0.844263 0.258325,0.118377 0.367811,-0.210519 0.57538,-0.833452 l 0.243501,-0.731445 0.03854,1.755278 c 0.0013,0.05502 -0.0188,1.099326 -0.0188,1.466651 0,0.27621 0.139955,0.432475 0.402858,0.432475 0.262901,0 0.402387,-0.161285 0.402387,-0.432475 0,-0.21947 -0.0028,-0.950992 0,-1.070372 0.0061,-0.277974 0.03384,-0.303202 0.137735,-0.303202 0.156378,0 0.126635,0.09955 0.137733,0.322946 v 1.050634 c 0,0.356994 0.164399,0.436707 0.386875,0.436707 0.222477,0 0.387348,-0.08525 0.387348,-0.436707 0,-0.291616 0.02099,-0.795333 0.03008,-1.531522 l 0.02069,-1.690407 0.258073,0.716872 c 0.225477,0.625884 0.279585,0.713953 0.424014,0.693368 0.105439,-0.01503 0.17419,-0.0889 0.190383,-0.203074 0.03015,-0.212864 -0.570335,-1.758284 -0.75777,-1.964936 -0.142962,-0.157615 -0.260952,-0.196903 -1.04499,-0.192263 z" />
  </g>
</svg>
