<?xml-stylesheet type="text/css" href="../css/style.css" ?>
<svg
   xmlns:dc="http://purl.org/dc/elements/1.1/"
   xmlns:cc="http://creativecommons.org/ns#"
   xmlns:rdf="http://www.w3.org/1999/02/22-rdf-syntax-ns#"
   xmlns:svg="http://www.w3.org/2000/svg"
   xmlns="http://www.w3.org/2000/svg"
   width="128"
   height="128"
   viewBox="0 0 33.866666 33.866668"
   version="1.1">
  <g>
    <circle
       class="sdg-circle"
       cx="16.933332"
       cy="16.933332"
       r="15.688075" />
    <path
       class="sdg-drawing"
       d="m 13.586321,25.850168 c -0.02023,-0.05873 -0.04777,-0.238457 -0.06121,-0.399389 -0.02301,-0.275642 -0.0545,-0.303339 -0.543269,-0.477811 -0.77985,-0.278379 -2.11589,-0.993026 -2.783161,-1.48871 -1.1970802,-0.889256 -2.3876722,-2.300919 -3.0405622,-3.605135 -0.288917,-0.57714 -0.697946,-1.811795 -0.774094,-2.336601 -0.04478,-0.308628 -0.03049,-0.430033 0.05714,-0.485537 0.129952,-0.08231 20.7245112,-0.107105 20.9379252,-0.02521 0.19313,0.07411 0.169094,0.485635 -0.07821,1.339023 -0.828475,2.858893 -3.039533,5.239174 -5.984071,6.442057 l -0.70413,0.287646 -0.04233,0.406108 -0.04233,0.406107 -3.452459,0.02212 c -2.718343,0.01741 -3.460279,-5.92e-4 -3.489237,-0.08467 z M 13.093537,15.819859 c 0.172966,-0.822174 0.01908,-1.317404 -0.712099,-2.291715 -0.304927,-0.406318 -0.632699,-0.910211 -0.728383,-1.119761 -0.21443,-0.469606 -0.290105,-1.699765 -0.146977,-2.38921 0.115349,-0.5556335 0.667527,-1.7341465 0.916253,-1.9555615 0.256629,-0.22845 0.760569,-0.163399 0.975664,0.12594 0.283454,0.279504 0.02897,0.495073 -0.131455,0.805081 -0.443258,0.856535 -0.597931,1.4678155 -0.551448,2.1793625 0.04501,0.688962 0.228552,1.105318 0.792473,1.797662 0.715249,0.878132 1.052308,1.900086 0.903282,2.738726 l -0.0677,0.381 -0.658584,0.02481 -0.658583,0.02481 z m 4.092242,0.09668 c 0.256983,-0.675915 -0.0125,-1.592601 -0.725498,-2.467879 -0.740977,-0.909628 -1.039943,-1.831827 -0.925513,-2.854868 0.09664,-0.8639515 0.559012,-2.0503965 0.967372,-2.4822405 0.330415,-0.349418 1.104877,-0.168538 1.104877,0.258051 0,0.101722 -0.134486,0.457126 -0.298857,0.789788 -0.416974,0.8438895 -0.584476,1.6898065 -0.457052,2.3082045 0.12361,0.599885 0.256642,0.856947 0.771383,1.490564 0.610941,0.752033 0.851544,1.312111 0.898081,2.090555 0.02139,0.357865 0.01437,0.74839 -0.01561,0.867833 -0.05279,0.210351 -0.07566,0.21717 -0.72813,0.21717 h -0.673625 z m 4.106232,0.06901 c 0.03434,-0.08149 0.08003,-0.338667 0.101517,-0.5715 0.05239,-0.567648 -0.204516,-1.235144 -0.697819,-1.813063 -0.968651,-1.134804 -1.235325,-2.15624 -0.934054,-3.577699 0.140378,-0.6623345 0.673551,-1.8032805 0.924986,-1.9793925 0.389853,-0.273063 1.069042,-0.04005 1.069042,0.366758 0,0.08302 -0.132347,0.400179 -0.294105,0.704806 -0.377562,0.711038 -0.584995,1.5833245 -0.517084,2.1744185 0.06575,0.572314 0.288495,1.041949 0.771431,1.626505 0.749161,0.906799 1.074727,1.892456 0.934329,2.828693 l -0.05828,0.38864 h -0.681203 c -0.61611,0 -0.675237,-0.01416 -0.61876,-0.148166 z" />
  </g>
</svg>
