<?xml version="1.0" encoding="UTF-8" standalone="no"?>
<svg
   xmlns:dc="http://purl.org/dc/elements/1.1/"
   xmlns:cc="http://creativecommons.org/ns#"
   xmlns:rdf="http://www.w3.org/1999/02/22-rdf-syntax-ns#"
   xmlns:svg="http://www.w3.org/2000/svg"
   xmlns="http://www.w3.org/2000/svg"
   xmlns:sodipodi="http://sodipodi.sourceforge.net/DTD/sodipodi-0.dtd"
   xmlns:inkscape="http://www.inkscape.org/namespaces/inkscape"
   width="128"
   height="128"
   viewBox="0 0 33.866666 33.866668"
   version="1.1"
   id="svg8"
   inkscape:version="1.0.1 (c497b03c, 2020-09-10)"
   sodipodi:docname="goal_16.svg">
  <defs
     id="defs2" />
  <sodipodi:namedview
     id="base"
     pagecolor="#ffffff"
     bordercolor="#666666"
     borderopacity="1.0"
     inkscape:pageopacity="0.0"
     inkscape:pageshadow="2"
     inkscape:zoom="1.5325347"
     inkscape:cx="201.59556"
     inkscape:cy="-32.512955"
     inkscape:document-units="mm"
     inkscape:current-layer="layer1"
     inkscape:document-rotation="0"
     showgrid="false"
     inkscape:snap-global="false"
     units="px"
     inkscape:window-width="1440"
     inkscape:window-height="872"
     inkscape:window-x="0"
     inkscape:window-y="28"
     inkscape:window-maximized="0" />
  <metadata
     id="metadata5">
    <rdf:RDF>
      <cc:Work
         rdf:about="">
        <dc:format>image/svg+xml</dc:format>
        <dc:type
           rdf:resource="http://purl.org/dc/dcmitype/StillImage" />
        <dc:title></dc:title>
      </cc:Work>
    </rdf:RDF>
  </metadata>
  <g
     inkscape:label="Layer 1"
     inkscape:groupmode="layer"
     id="layer1">
    <circle
       style="fill:none;stroke:#ff8200;stroke-width:1.05833;stroke-linecap:round;stroke-miterlimit:4;stroke-dasharray:none;stroke-opacity:1"
       id="path833"
       cx="16.933332"
       cy="16.933332"
       r="15.688075" />
    <path
       id="path2284"
       style="opacity:1;fill:#ff8200;fill-opacity:1;stroke-width:0.0846667"
       d="m 26.625334,7.6641308 c -0.601993,0 -1.022615,0.3807873 -1.145667,1.037146 l -0.05943,0.3172934 h 0.31006 c 0.612965,0 0.976932,-0.3413821 1.107943,-1.03973 0.05814,-0.3099136 0.05486,-0.3147094 -0.212908,-0.3147094 z m -2.463932,0.1881023 c -0.03877,5.821e-4 -0.07312,0.028273 -0.120923,0.075448 -0.189026,0.1865503 -0.256511,0.775082 -0.125058,1.0924397 0.05889,0.1421571 0.202452,0.3332263 0.318844,0.4247803 0.116393,0.091555 0.238493,0.166398 0.271301,0.166398 0.117528,0 0.256316,-0.4378412 0.256316,-0.8092527 0,-0.3134175 -0.05044,-0.4324879 -0.291971,-0.6945312 C 24.30203,7.9253734 24.226018,7.8512683 24.161402,7.8522331 Z m -1.152901,1.0950237 -0.139525,0.2924886 c -0.230431,0.483216 -0.182616,0.8311276 0.166915,1.2180136 0.168402,0.1864 0.335018,0.338997 0.37052,0.338997 0.07111,0 0.219363,-0.340224 0.301273,-0.69143 0.0676,-0.2898483 -0.149048,-0.7512504 -0.460955,-0.9818528 z m 2.220021,0.3446817 c -0.04392,0.01064 -0.0954,0.060707 -0.179319,0.1452107 -0.327422,0.329715 -1.035449,1.1362808 -1.362191,1.5916338 -0.148593,0.207082 -0.32643,0.47598 -0.35605,0.610816 -0.0813,0.370178 -0.17916,0.399186 -0.460436,0.08061 -0.357941,-0.405398 -0.648867,-0.583783 -0.952915,-0.584461 -0.422363,-8.99e-4 -1.20691,0.457045 -2.024166,1.180807 -0.4191,0.371155 -0.971717,0.780288 -1.227831,0.909505 -0.405399,0.204532 -0.56438,0.235031 -1.228865,0.236161 -0.694227,0.0012 -0.814734,-0.02402 -1.333254,-0.279053 C 15.7272,12.998091 15.255945,12.644967 14.717018,12.144477 13.734427,11.23197 12.930369,10.683915 12.10839,10.364741 11.425604,10.099614 10.118488,9.8988336 9.6485934,9.9869864 l -0.306959,0.057361 0.2382282,0.185002 c 0.5674594,0.440744 0.8247014,1.020306 1.2588394,2.83807 0.350674,1.468302 0.644396,2.142736 1.187006,2.722831 0.502412,0.537118 0.831376,0.740051 1.590601,0.981335 0.332481,0.105663 0.528246,0.195746 0.435115,0.199988 -0.263583,0.012 -0.979972,0.371968 -1.663464,0.836125 -0.739969,0.502512 -1.329608,0.693497 -2.138371,0.693497 H 9.6537607 l 1.0557513,0.648023 c 1.505458,0.92407 1.94219,1.092276 3.489708,1.341003 l 0.31781,0.05064 v 0.93586 0.93586 l -3.047876,-0.06253 -3.0483939,-0.06201 v 0.604614 0.604098 l 0.7834153,0.0015 c 0.4307417,9.26e-4 2.9737496,-0.04095 5.6513356,-0.09353 4.028501,-0.07911 5.028975,-0.07612 5.799646,0.01912 l 0.898652,0.111104 v 0.998389 c 0,0.198667 0.159969,0.358635 0.358634,0.358635 h 3.286623 c 0.198665,0 0.358635,-0.159968 0.358635,-0.358635 v -3.216858 c 0,-0.198666 -0.15997,-0.358634 -0.358635,-0.358634 h -3.286623 c -0.198665,0 -0.358634,0.159968 -0.358634,0.358634 v 0.956531 l -0.771528,0.09612 c -1.019789,0.12709 -1.079085,0.12974 -2.984315,0.119889 l -1.5875,-0.0083 v -1.006656 -1.00614 l 0.402043,-0.05994 c 0.221191,-0.03309 0.706987,-0.15572 1.079521,-0.272335 2.358731,-0.738363 3.42873,-2.095561 3.42873,-4.347538 0,-1.061182 0.135519,-1.704395 0.458888,-2.183847 0.269325,-0.399324 0.780275,-0.726156 1.292426,-0.826306 0.259435,-0.05073 0.271497,-0.0408 0.323495,0.273886 0.137391,0.831458 0.246068,1.215946 0.343649,1.215946 0.08329,0 0.08188,-0.09356 -0.0072,-0.444417 -0.06211,-0.244475 -0.125085,-0.596632 -0.140044,-0.782898 -0.02646,-0.329128 -0.01876,-0.340231 0.269234,-0.381372 l 0.296106,-0.04186 -0.274921,-0.196371 c -0.151339,-0.107946 -0.275433,-0.262312 -0.275433,-0.343131 0,-0.190163 0.125301,-0.519103 0.407725,-0.910539 0.202208,-0.28025 0.505886,-0.59016 0.805119,-0.916223 0.416782,-0.4541508 0.766972,-0.8433137 0.709002,-0.9100218 -0.02098,-0.024154 -0.0394,-0.039242 -0.05788,-0.046509 -0.01386,-0.00545 -0.02773,-0.00613 -0.04237,-0.00258 z m 0.711068,0.4542358 c -0.2441,0.00228 -0.462291,0.1097733 -0.664044,0.3245277 -0.19677,0.209453 -0.193569,0.215012 0.227375,0.434599 0.127926,0.06673 0.328203,0.121186 0.445453,0.12144 0.230476,5.55e-4 0.845426,-0.374129 0.845426,-0.515214 0,-0.04751 -0.17307,-0.1628014 -0.384472,-0.2563155 C 26.241942,9.7811695 26.086044,9.7448054 25.93959,9.7461743 Z m -1.084689,1.2236977 c -0.144775,0.0096 -0.292804,0.05145 -0.43615,0.125574 -0.313907,0.162327 -0.312377,0.226178 0.01085,0.498161 0.301522,0.253713 0.715865,0.28759 1.098124,0.08992 0.31391,-0.162328 0.31238,-0.226178 -0.01085,-0.498161 -0.188452,-0.158571 -0.420687,-0.231497 -0.661974,-0.215491 z m -3.117641,8.625313 c -0.283204,0 -0.51108,0.227875 -0.51108,0.51108 0,0.283206 0.227876,0.51108 0.51108,0.51108 h 3.616833 c 0.283208,0 0.511083,-0.227874 0.51108,-0.51108 0,-0.283205 -0.227872,-0.51108 -0.51108,-0.51108 z m -6.797,0.938444 h 0.380854 0.381374 v 0.973584 c 0,0.535517 -0.0095,0.966738 -0.02119,0.958598 -0.01164,-0.0081 -0.183465,-0.0292 -0.381373,-0.04703 L 14.94026,22.38623 v -0.926559 z m -7.5215035,1.37356 c -0.2331376,0 -0.4206478,0.188028 -0.4206478,0.421163 v 1.121895 c 0,0.233135 0.1875102,0.421163 0.4206478,0.421163 h 0.2480469 c 0.2331323,0 0.4206452,-0.188028 0.4206452,-0.421163 v -1.121895 c 0,-0.233135 -0.1875129,-0.421163 -0.4206452,-0.421163 z M 21.73726,25.180374 c -0.283204,0 -0.51108,0.227875 -0.51108,0.51108 0,0.283206 0.227876,0.51108 0.51108,0.51108 h 3.616833 c 0.283208,0 0.511083,-0.227874 0.51108,-0.51108 0,-0.283205 -0.227872,-0.51108 -0.51108,-0.51108 z" />
  </g>
</svg>
