<?xml version="1.0" encoding="UTF-8" standalone="no"?>
<svg
   xmlns:dc="http://purl.org/dc/elements/1.1/"
   xmlns:cc="http://creativecommons.org/ns#"
   xmlns:rdf="http://www.w3.org/1999/02/22-rdf-syntax-ns#"
   xmlns:svg="http://www.w3.org/2000/svg"
   xmlns="http://www.w3.org/2000/svg"
   xmlns:sodipodi="http://sodipodi.sourceforge.net/DTD/sodipodi-0.dtd"
   xmlns:inkscape="http://www.inkscape.org/namespaces/inkscape"
   width="128"
   height="128"
   viewBox="0 0 33.866666 33.866668"
   version="1.1"
   id="svg8"
   inkscape:version="1.0.1 (c497b03c, 2020-09-10)"
   sodipodi:docname="goal_10.svg">
  <defs
     id="defs2" />
  <sodipodi:namedview
     id="base"
     pagecolor="#ffffff"
     bordercolor="#666666"
     borderopacity="1.0"
     inkscape:pageopacity="0.0"
     inkscape:pageshadow="2"
     inkscape:zoom="2.1673313"
     inkscape:cx="190.33423"
     inkscape:cy="85.649483"
     inkscape:document-units="mm"
     inkscape:current-layer="layer1"
     inkscape:document-rotation="0"
     showgrid="false"
     inkscape:snap-global="false"
     units="px"
     inkscape:window-width="1440"
     inkscape:window-height="872"
     inkscape:window-x="0"
     inkscape:window-y="28"
     inkscape:window-maximized="0" />
  <metadata
     id="metadata5">
    <rdf:RDF>
      <cc:Work
         rdf:about="">
        <dc:format>image/svg+xml</dc:format>
        <dc:type
           rdf:resource="http://purl.org/dc/dcmitype/StillImage" />
        <dc:title></dc:title>
      </cc:Work>
    </rdf:RDF>
  </metadata>
  <g
     inkscape:label="Layer 1"
     inkscape:groupmode="layer"
     id="layer1">
    <circle
       style="fill:none;stroke:#ff8200;stroke-width:1.05833;stroke-linecap:round;stroke-miterlimit:4;stroke-dasharray:none;stroke-opacity:1"
       id="path833"
       cx="16.933332"
       cy="16.933332"
       r="15.688075" />
    <path
       id="path1060"
       style="opacity:1;fill:#ff8200;fill-opacity:1;stroke-width:0.264999;stroke-linecap:round;stroke-miterlimit:4;stroke-dasharray:none"
       inkscape:transform-center-y="-1.1550124"
       d="m 16.933334,4.7878187 -4.17494,4.2700234 h 8.349877 z M 9.0320051,12.758391 4.761982,16.93333 9.0320051,21.108269 Z m 15.8026549,0 v 8.349878 l 4.270023,-4.174939 z m -12.157914,0.08527 c -0.05978,0 -0.108005,0.04822 -0.108005,0.108003 v 2.530595 c 0,0.05978 0.04822,0.108004 0.108005,0.108004 h 8.513175 c 0.05977,0 0.107487,-0.04822 0.107487,-0.108004 v -2.530595 c 0,-0.05978 -0.04771,-0.108003 -0.107487,-0.108003 z m 0,5.432226 c -0.05978,0 -0.108005,0.04822 -0.108005,0.108004 v 2.531111 c 0,0.05977 0.04822,0.108004 0.108005,0.108004 h 8.513175 c 0.05977,0 0.107487,-0.04822 0.107487,-0.108004 v -2.531111 c 0,-0.05977 -0.04771,-0.108004 -0.107487,-0.108004 z m 0.08165,6.532418 4.17494,4.270541 4.174937,-4.270541 z" />
  </g>
</svg>
