<?xml version="1.0" encoding="UTF-8" standalone="no"?>
<svg
   xmlns:dc="http://purl.org/dc/elements/1.1/"
   xmlns:cc="http://creativecommons.org/ns#"
   xmlns:rdf="http://www.w3.org/1999/02/22-rdf-syntax-ns#"
   xmlns:svg="http://www.w3.org/2000/svg"
   xmlns="http://www.w3.org/2000/svg"
   xmlns:sodipodi="http://sodipodi.sourceforge.net/DTD/sodipodi-0.dtd"
   xmlns:inkscape="http://www.inkscape.org/namespaces/inkscape"
   width="128"
   height="128"
   viewBox="0 0 33.866666 33.866668"
   version="1.1"
   id="svg8"
   inkscape:version="1.0.1 (c497b03c, 2020-09-10)"
   sodipodi:docname="goal_7.svg">
  <defs
     id="defs2" />
  <sodipodi:namedview
     id="base"
     pagecolor="#ffffff"
     bordercolor="#666666"
     borderopacity="1.0"
     inkscape:pageopacity="0.0"
     inkscape:pageshadow="2"
     inkscape:zoom="2.1673313"
     inkscape:cx="161.37744"
     inkscape:cy="70.379646"
     inkscape:document-units="mm"
     inkscape:current-layer="layer1"
     inkscape:document-rotation="0"
     showgrid="false"
     inkscape:snap-global="false"
     units="px"
     inkscape:window-width="1440"
     inkscape:window-height="872"
     inkscape:window-x="0"
     inkscape:window-y="28"
     inkscape:window-maximized="0" />
  <metadata
     id="metadata5">
    <rdf:RDF>
      <cc:Work
         rdf:about="">
        <dc:format>image/svg+xml</dc:format>
        <dc:type
           rdf:resource="http://purl.org/dc/dcmitype/StillImage" />
        <dc:title></dc:title>
      </cc:Work>
    </rdf:RDF>
  </metadata>
  <g
     inkscape:label="Layer 1"
     inkscape:groupmode="layer"
     id="layer1">
    <circle
       style="fill:none;stroke:#ff8200;stroke-width:1.05833;stroke-linecap:round;stroke-miterlimit:4;stroke-dasharray:none;stroke-opacity:1"
       id="path833"
       cx="16.933332"
       cy="16.933332"
       r="15.688075" />
    <path
       id="rect2730"
       style="opacity:1;fill:#ff8200;fill-opacity:1;stroke:none;stroke-width:0.30659;stroke-linecap:round;stroke-miterlimit:4;stroke-dasharray:none;stroke-opacity:1"
       d="m 16.917191,5.2345364 c -0.313942,0 -0.566783,0.2528401 -0.566783,0.5667796 v 2.8847175 c 0,0.313939 0.252841,0.56678 0.566783,0.56678 0.313939,0 0.566178,-0.252841 0.566178,-0.56678 V 5.801316 c 4e-6,-0.3139395 -0.252239,-0.5667796 -0.566178,-0.5667796 z m 5.47528,1.4928786 C 22.211154,6.740091 22.039188,6.8396839 21.94108,7.0096091 l -1.442058,2.4984934 c -0.156969,0.271881 -0.06442,0.6166725 0.20746,0.7736425 0.271879,0.15697 0.616672,0.06442 0.773644,-0.207461 l 1.442657,-2.4978954 c 0.15697,-0.2718797 0.06442,-0.61727 -0.207461,-0.7742399 -0.101956,-0.058864 -0.214056,-0.082339 -0.322851,-0.074734 z m -10.958935,0.043046 c -0.108788,-0.0076 -0.221492,0.016468 -0.323448,0.075331 -0.271879,0.15697 -0.363831,0.5023601 -0.206862,0.7742402 l 1.44206,2.4978963 c 0.15697,0.271879 0.502362,0.36443 0.774242,0.20746 0.27188,-0.15697 0.364429,-0.5023605 0.207459,-0.7742395 L 11.88433,7.0532535 c -0.09811,-0.169925 -0.269474,-0.270117 -0.450794,-0.282792 z m 5.4424,3.5471555 a 6.6734812,6.6734812 0 0 0 -6.647105,6.673412 6.6734812,6.6734812 0 0 0 6.673412,6.673413 6.6734812,6.6734812 0 0 0 6.673412,-6.673413 6.6734812,6.6734812 0 0 0 -6.673412,-6.673412 6.6734812,6.6734812 0 0 0 -0.02631,0 z m 9.718957,0.483078 c -0.108788,-0.0076 -0.220895,0.01587 -0.32285,0.07474 l -2.498494,1.442659 c -0.271879,0.15697 -0.364429,0.501762 -0.207459,0.773642 0.156969,0.271878 0.502361,0.36443 0.774241,0.20746 l 2.497894,-1.44206 c 0.27188,-0.15697 0.364432,-0.502361 0.207462,-0.774239 -0.09811,-0.169926 -0.269474,-0.26952 -0.450794,-0.282195 z m -19.3703541,0.02869 c -0.1813175,0.01268 -0.3526863,0.112871 -0.4507913,0.282792 -0.1569694,0.27188 -0.065017,0.616673 0.2068624,0.773643 l 2.4984945,1.442657 c 0.271877,0.15697 0.6172675,0.06442 0.7742375,-0.20746 0.156972,-0.271881 0.06442,-0.617271 -0.207459,-0.774241 L 7.5473889,10.904725 c -0.101956,-0.05887 -0.2140559,-0.08294 -0.32285,-0.07533 z m 9.6926521,1.661477 c 0.313939,0 0.566182,0.252841 0.566178,0.56678 v 2.03694 c 0,0.31394 -0.252239,0.56678 -0.566178,0.56678 -0.313942,0 -0.566783,-0.25284 -0.566783,-0.56678 v -2.03694 c 0,-0.313939 0.252841,-0.56678 0.566783,-0.56678 z M 15.878092,13.5754 v 1.323083 a 2.3304218,2.3304218 0 0 0 -1.306341,2.092541 2.3304218,2.3304218 0 0 0 2.330492,2.330494 2.3304218,2.3304218 0 0 0 2.330493,-2.330494 2.3304218,2.3304218 0 0 0 -1.271071,-2.075203 v -1.329659 a 3.5662518,3.5662518 0 0 1 2.506866,3.404862 3.5662518,3.5662518 0 0 1 -3.566288,3.566288 3.5662518,3.5662518 0 0 1 -3.566288,-3.566288 3.5662518,3.5662518 0 0 1 2.542137,-3.415624 z M 5.8536273,16.354295 c -0.3139391,0 -0.5667789,0.252839 -0.5667789,0.566779 0,0.31394 0.2528398,0.56678 0.5667789,0.56678 h 2.8841182 c 0.313939,0 0.566782,-0.25284 0.566782,-0.56678 -4e-6,-0.31394 -0.252843,-0.566779 -0.566782,-0.566779 z m 19.2746927,0 c -0.31394,0 -0.566779,0.252839 -0.566779,0.566779 0,0.31394 0.252839,0.56678 0.566779,0.56678 h 2.884717 c 0.313939,0 0.566779,-0.25284 0.566779,-0.56678 0,-0.31394 -0.25284,-0.566779 -0.566779,-0.566779 z m -1.17541,4.062518 c -0.18132,0.01268 -0.353286,0.112872 -0.451391,0.282792 -0.15697,0.27188 -0.06442,0.61727 0.207463,0.77424 l 2.49849,1.442061 c 0.271883,0.156969 0.616675,0.06442 0.773645,-0.207461 0.15697,-0.271879 0.06502,-0.61727 -0.206862,-0.77424 l -2.498494,-1.44206 c -0.101962,-0.05887 -0.21406,-0.08293 -0.322851,-0.07533 z m -14.1360115,0.07115 c -0.108788,-0.0076 -0.221492,0.01587 -0.323447,0.07474 l -2.4978942,1.442658 c -0.2718799,0.15697 -0.3644318,0.50236 -0.2074622,0.77424 0.1569694,0.271879 0.5023613,0.36443 0.7742411,0.20746 L 10.06023,21.544403 c 0.271879,-0.156969 0.364432,-0.50236 0.207462,-0.774239 -0.09811,-0.169926 -0.2694735,-0.269519 -0.4507935,-0.282195 z m 11.2040645,2.911023 c -0.108788,-0.0076 -0.220897,0.01646 -0.32285,0.07533 -0.27188,0.156969 -0.364432,0.501762 -0.207463,0.773642 l 1.442061,2.498494 c 0.15697,0.27188 0.502361,0.36443 0.774241,0.20746 0.271881,-0.156969 0.364429,-0.50236 0.207459,-0.77424 L 21.471754,23.68178 c -0.09811,-0.169925 -0.269474,-0.270117 -0.450791,-0.282792 z m -8.266136,0.106416 c -0.18132,0.01268 -0.353287,0.11227 -0.451391,0.282194 l -1.442061,2.498494 c -0.156969,0.27188 -0.06442,0.617271 0.207462,0.77424 0.27188,0.15697 0.617268,0.06442 0.774238,-0.20746 l 1.44206,-2.498494 c 0.15697,-0.27188 0.06442,-0.616672 -0.207459,-0.773642 -0.101961,-0.05887 -0.214058,-0.08294 -0.322849,-0.07533 z m 4.162364,1.109047 c -0.313942,0 -0.566783,0.25284 -0.566783,0.56678 v 2.884717 c 0,0.313939 0.252841,0.566182 0.566783,0.566182 0.313939,0 0.566178,-0.252243 0.566178,-0.566182 v -2.884717 c 4e-6,-0.31394 -0.252239,-0.56678 -0.566178,-0.56678 z" />
  </g>
</svg>
