<?xml-stylesheet type="text/css" href="../css/style.css" ?>
<svg
   xmlns:dc="http://purl.org/dc/elements/1.1/"
   xmlns:cc="http://creativecommons.org/ns#"
   xmlns:rdf="http://www.w3.org/1999/02/22-rdf-syntax-ns#"
   xmlns:svg="http://www.w3.org/2000/svg"
   xmlns="http://www.w3.org/2000/svg"
   width="128"
   height="128"
   viewBox="0 0 33.866666 33.866668"
   version="1.1">
  <g>
    <circle
       class="sdg-circle"
       cx="16.933332"
       cy="16.933332"
       r="15.688075" />
    <path
       class="sdg-drawing"
       d="m 8.8778298,7.4953866 C 9.8350291,13.495334 10.621944,18.031388 11.663797,23.786696 h 3.281096 l 0.188782,2.596617 h -1.298308 l 3.162966,3.162966 3.116054,-3.162966 h -1.298309 l 0.212523,-2.596617 h 3.328011 C 23.313,18.413372 24.175334,12.405695 24.988835,7.5468215 Z m 8.0832012,0.7104803 h 7.301497 l -0.166739,1.0790032 c -0.269621,1.7438809 -0.222696,1.6344449 -0.670916,1.5696139 -0.305812,-0.04423 -0.60157,0.02054 -1.449221,0.318784 -0.585729,0.206084 -1.349093,0.435693 -1.696223,0.509827 -1.17202,0.250303 -2.219878,0.140628 -3.641705,-0.380957 -2.334758,-0.856487 -2.540446,-0.874834 -4.115359,-0.365697 -0.909094,0.29389 -2.307789,0.535952 -2.307789,0.39961 0,-0.02491 -0.124726,-0.662583 -0.2775249,-1.4170052 -0.152799,-0.7544215 -0.278089,-1.4485633 -0.278089,-1.5424828 0,-0.1645064 0.267998,-0.1706961 7.3020689,-0.1706961 z m 0.02882,5.3724081 c 0.03382,-4.63e-4 0.554601,0.759347 1.157002,1.688875 1.447158,2.233009 1.681284,2.898537 1.378005,3.919793 -0.190941,0.642969 -0.606769,1.163899 -1.175656,1.473527 -0.650333,0.353957 -1.64151,0.416148 -2.393138,0.149782 -0.648209,-0.229715 -1.305635,-0.909649 -1.479179,-1.529482 -0.180213,-0.643654 -0.08306,-1.569824 0.228916,-2.184572 0.310029,-0.610918 2.196591,-3.516698 2.28405,-3.517923 z"/>
  </g>
</svg>
