<?xml-stylesheet type="text/css" href="../css/style.css" ?>
<svg
   xmlns:dc="http://purl.org/dc/elements/1.1/"
   xmlns:cc="http://creativecommons.org/ns#"
   xmlns:rdf="http://www.w3.org/1999/02/22-rdf-syntax-ns#"
   xmlns:svg="http://www.w3.org/2000/svg"
   xmlns="http://www.w3.org/2000/svg"
   width="128"
   height="128"
   viewBox="0 0 33.866666 33.866668"
   version="1.1">
  <g>
    <circle
       class="sdg-circle"
       cx="16.933332"
       cy="16.933332"
       r="15.688075" />
    <path
       class="sdg-drawing"
       d="m 22.453926,7.4558958 c -0.387215,-0.00317 -0.804085,0.1730277 -0.804085,0.3400309 0,0.127033 0.05836,0.1653645 0.25218,0.1653645 0.427344,3e-7 0.921501,0.2561196 1.260906,0.6531901 l 0.324011,0.3787884 0.415994,-0.147278 c 0.493655,-0.1753293 1.104294,-0.1174641 1.405083,0.1333254 0.106783,0.089032 0.218623,0.1632977 0.248563,0.1648479 0.131223,0.00679 0.143912,-0.2780329 0.02066,-0.4661215 C 25.280876,8.2257407 24.544604,7.9634193 23.996456,8.1147705 23.726816,8.1892215 23.674109,8.1756135 23.497777,7.984029 23.276773,7.7439069 22.711615,7.4580058 22.453914,7.4558958 Z m -9.515181,0.029973 c -1.236486,-8.996e-4 -2.342867,0.8330311 -2.661854,2.0841105 -0.118126,0.4633047 -0.120402,0.4662407 -0.4966099,0.5203817 -0.7387061,0.106308 -1.3744257,0.582522 -1.647444,1.234033 -0.1535245,0.366368 -0.1448593,1.226061 0.016537,1.613855 0.072054,0.173129 0.2864802,0.473604 0.4764564,0.66766 l 0.3451992,0.35295 -0.1669151,0.239778 c -0.5577368,0.800344 -0.4608993,2.053651 0.213939,2.766239 0.4751414,0.501719 0.7953772,0.600566 2.1332034,0.657841 0.675216,0.02891 1.932143,0.04741 2.793629,0.04134 0.738852,-0.0052 1.460765,0.0891 2.133719,-0.278536 0.675913,-0.369251 1.232345,-0.849805 1.554427,-1.513086 0.216109,-0.44505 0.244679,-0.594848 0.245981,-1.306897 0.0013,-0.694679 -0.02946,-0.869686 -0.223242,-1.284676 -0.303845,-0.650678 -0.829765,-1.198478 -1.44694,-1.506884 -0.282054,-0.140944 -0.561573,-0.256316 -0.621152,-0.256316 -0.08452,0 -0.07946,-0.08565 0.02376,-0.388606 C 15.806638,10.556181 15.730441,9.569245 15.448144,9.0165241 15.220486,8.5707879 14.64584,7.9809439 14.229095,7.7654376 14.095118,7.6961546 13.755374,7.5938129 13.474619,7.538578 13.294586,7.503159 13.115376,7.485997 12.938735,7.485868 Z m 8.806698,2.2008992 c -0.08681,-0.00214 -0.170878,0.00334 -0.249597,0.017052 -0.17135,0.02984 -0.512075,0.1649148 -0.75706,0.30024 l -0.44545,0.24598 -0.359154,-0.185002 c -0.415216,-0.2139932 -1.245364,-0.2540699 -1.586465,-0.076481 -0.572588,0.2981088 -0.903309,0.8415558 -0.444418,0.7301878 0.859221,-0.208523 1.634371,-0.102918 2.137854,0.290939 0.273656,0.214071 0.443331,0.211496 0.642856,-0.0093 0.428056,-0.473694 1.483508,-0.760796 2.045869,-0.556556 0.144857,0.05261 0.204394,0.03406 0.247013,-0.077 0.112217,-0.292432 -0.623811,-0.6650088 -1.231448,-0.680062 z m 2.876309,4.986259 c -0.390199,-0.0165 -0.797613,0.08726 -1.252635,0.316776 l -0.486278,0.245463 -0.551386,-0.271301 c -0.452673,-0.222851 -0.649917,-0.270792 -1.103291,-0.268718 -0.594202,0.0027 -1.015125,0.157128 -1.400948,0.514697 -0.405863,0.376141 -0.193916,0.488565 0.53485,0.282671 0.519255,-0.146702 1.345078,0.06528 1.965256,0.504878 0.256114,0.181544 0.491456,0.333574 0.522965,0.337964 0.03151,0.0044 0.279183,-0.144185 0.550354,-0.330212 0.653238,-0.448135 1.473663,-0.659109 1.992125,-0.51263 0.535223,0.151212 0.693338,0.148715 0.725538,-0.0098 0.0384,-0.189042 -0.606997,-0.626523 -1.111044,-0.753443 -0.127481,-0.0321 -0.255439,-0.05083 -0.385506,-0.05633 z m -11.923821,3.802868 c -0.113575,0 -0.205155,0.09158 -0.205155,0.205156 v 2.611209 c 0,0.113579 0.09158,0.205156 0.205155,0.205156 h 0.96325 c 0.113575,0 0.205156,-0.09158 0.205156,-0.205156 v -2.611209 c 0,-0.113579 -0.09158,-0.205156 -0.205156,-0.205156 z m -5.2187999,4.211629 c -0.113575,0 -0.2051579,0.09158 -0.2051579,0.205156 v 0.963248 c 0,0.113578 0.091578,0.205156 0.2051579,0.205156 H 26.388052 c 0.113575,0 0.20464,-0.09158 0.20464,-0.205156 V 22.89268 c 0,-0.113578 -0.09106,-0.205156 -0.20464,-0.205156 z m 0,2.350244 c -0.113575,0 -0.2051579,0.09106 -0.2051579,0.204639 v 0.963765 c 0,0.113575 0.091578,0.204639 0.2051579,0.204639 H 26.388052 c 0.113575,0 0.20464,-0.09106 0.20464,-0.204639 v -0.963765 c 0,-0.113575 -0.09106,-0.204639 -0.20464,-0.204639 z" />
  </g>
</svg>
