<?xml version="1.0" encoding="UTF-8" standalone="no"?>
<svg
   xmlns:dc="http://purl.org/dc/elements/1.1/"
   xmlns:cc="http://creativecommons.org/ns#"
   xmlns:rdf="http://www.w3.org/1999/02/22-rdf-syntax-ns#"
   xmlns:svg="http://www.w3.org/2000/svg"
   xmlns="http://www.w3.org/2000/svg"
   xmlns:sodipodi="http://sodipodi.sourceforge.net/DTD/sodipodi-0.dtd"
   xmlns:inkscape="http://www.inkscape.org/namespaces/inkscape"
   width="128"
   height="128"
   viewBox="0 0 33.866666 33.866668"
   version="1.1"
   id="svg8"
   inkscape:version="1.0.1 (c497b03c, 2020-09-10)"
   sodipodi:docname="goal_8.svg">
  <defs
     id="defs2" />
  <sodipodi:namedview
     id="base"
     pagecolor="#ffffff"
     bordercolor="#666666"
     borderopacity="1.0"
     inkscape:pageopacity="0.0"
     inkscape:pageshadow="2"
     inkscape:zoom="2.1673313"
     inkscape:cx="154.41134"
     inkscape:cy="59.683692"
     inkscape:document-units="mm"
     inkscape:current-layer="layer1"
     inkscape:document-rotation="0"
     showgrid="false"
     inkscape:snap-global="false"
     units="px"
     inkscape:window-width="1440"
     inkscape:window-height="872"
     inkscape:window-x="0"
     inkscape:window-y="28"
     inkscape:window-maximized="0" />
  <metadata
     id="metadata5">
    <rdf:RDF>
      <cc:Work
         rdf:about="">
        <dc:format>image/svg+xml</dc:format>
        <dc:type
           rdf:resource="http://purl.org/dc/dcmitype/StillImage" />
        <dc:title></dc:title>
      </cc:Work>
    </rdf:RDF>
  </metadata>
  <g
     inkscape:label="Layer 1"
     inkscape:groupmode="layer"
     id="layer1">
    <circle
       style="fill:none;stroke:#ff8200;stroke-width:1.05833;stroke-linecap:round;stroke-miterlimit:4;stroke-dasharray:none;stroke-opacity:1"
       id="path833"
       cx="16.933332"
       cy="16.933332"
       r="15.688075" />
    <path
       style="fill:#ff8200;fill-opacity:1;stroke-width:0.0846667"
       d="m 8.9515727,26.895226 c -0.08195,-0.03307 -0.105833,-0.740069 -0.105833,-3.133427 v -3.090724 l 0.4445,-0.447169 C 10.614763,18.891433 13.16325,16.5373 13.281207,16.5373 c 0.124089,0 0.136533,0.465292 0.136533,5.1054 0,3.857978 -0.02482,5.130224 -0.1016,5.206999 -0.07388,0.07388 -0.668628,0.09978 -2.180167,0.09492 -1.1432123,-0.0037 -2.1261923,-0.0259 -2.1844003,-0.04939 z m 5.8420003,0 c -0.163658,-0.06604 -0.153943,-9.595926 0.0098,-9.595926 0.06359,0 0.540069,0.43815 1.058846,0.973666 0.518776,0.535517 0.971044,0.973667 1.00504,0.973667 0.034,0 0.549162,-0.485775 1.144815,-1.0795 0.869036,-0.866225 1.099016,-1.054409 1.164047,-0.9525 0.127513,0.199823 0.11016,9.506942 -0.01796,9.635066 -0.07388,0.07388 -0.668628,0.09978 -2.180167,0.09492 -1.143212,-0.0037 -2.126192,-0.0259 -2.1844,-0.04939 z m 5.668433,-0.04553 C 20.33796,26.72565 20.313917,16.077931 20.436956,15.754325 c 0.08507,-0.223764 4.180181,-4.154058 4.373416,-4.197403 0.105576,-0.02368 0.122038,1.005866 0.122038,7.632108 0,6.906342 -0.01317,7.664537 -0.133925,7.710875 -0.07366,0.02827 -1.056638,0.05139 -2.1844,0.05139 -1.481925,0 -2.078646,-0.02817 -2.152075,-0.1016 z M 7.9337847,18.800586 7.4932807,18.35454 10.53999,15.308713 l 3.04671,-3.045827 1.630608,1.628999 1.630608,1.629 3.492279,-3.49304 3.49228,-3.4930399 -0.398449,-0.39845 c -0.219147,-0.219148 -0.373205,-0.423695 -0.34235,-0.45455 0.03085,-0.03085 0.688228,-0.20001 1.460831,-0.3759 0.772603,-0.175891 1.497994,-0.343208 1.611982,-0.371818 0.161089,-0.04043 0.207615,-0.01866 0.208886,0.09776 0.0028,0.257891 -0.614344,3.1089009 -0.691424,3.1940749 -0.0446,0.04928 -0.231062,-0.07446 -0.476523,-0.3162259 l -0.403252,-0.397189 -3.935043,3.9357259 c -2.164274,2.164649 -3.972931,3.935726 -4.019238,3.935726 -0.04631,0 -0.799003,-0.714067 -1.672661,-1.586817 l -1.588467,-1.586818 -2.519201,2.518151 c -1.3855613,1.384983 -2.5583683,2.518151 -2.6062393,2.518151 -0.04787,0 -0.285265,-0.20072 -0.527542,-0.446044 z"
       id="path2871"
       sodipodi:nodetypes="sscsssscssssssssscssssssssssccccccccsssscsscssscsssc" />
  </g>
</svg>
