<?xml-stylesheet type="text/css" href="../css/style.css" ?>
<svg
   xmlns:dc="http://purl.org/dc/elements/1.1/"
   xmlns:cc="http://creativecommons.org/ns#"
   xmlns:rdf="http://www.w3.org/1999/02/22-rdf-syntax-ns#"
   xmlns:svg="http://www.w3.org/2000/svg"
   xmlns="http://www.w3.org/2000/svg"
   width="128"
   height="128"
   viewBox="0 0 33.866666 33.866668"
   version="1.1">
  <g>
    <circle
       class="sdg-circle"
       cx="16.933332"
       cy="16.933332"
       r="15.688075" />
    <path
       class="sdg-drawing"
       d="m 21.414103,6.9842201 v 1.9891618 h 2.1797 l -2.241107,2.2411071 a 7.2184812,7.2184812 0 0 0 -4.444336,-1.5306101 7.2184812,7.2184812 0 0 0 -0.07173,0 7.2184812,7.2184812 0 0 0 -7.1468671,7.2186031 7.2184812,7.2184812 0 0 0 6.2119721,7.147438 v 2.011545 h -2.133214 v 2.157316 h 2.133214 v 2.060901 h 2.156741 v -2.060901 h 2.133214 v -2.157316 h -2.133219 v -2.033353 a 7.2184812,7.2184812 0 0 0 6.067919,-7.12563 7.2184812,7.2184812 0 0 0 -1.263743,-4.079906 l 2.170517,-2.170516 v 1.94038 h 1.989161 V 6.9842201 Z M 16.90836,11.648936 a 5.2531984,5.2531984 0 0 1 5.25297,5.253546 5.2531984,5.2531984 0 0 1 -5.25297,5.252971 5.2531984,5.2531984 0 0 1 -5.253546,-5.252971 5.2531984,5.2531984 0 0 1 5.253546,-5.253546 z m -3.259792,3.148455 v 1.629896 h 6.519012 v -1.629896 z m 0,2.794353 v 1.629897 h 6.519012 v -1.629897 z" />
  </g>
</svg>
