<?xml version="1.0" encoding="UTF-8" standalone="no"?>
<svg
   xmlns:dc="http://purl.org/dc/elements/1.1/"
   xmlns:cc="http://creativecommons.org/ns#"
   xmlns:rdf="http://www.w3.org/1999/02/22-rdf-syntax-ns#"
   xmlns:svg="http://www.w3.org/2000/svg"
   xmlns="http://www.w3.org/2000/svg"
   xmlns:sodipodi="http://sodipodi.sourceforge.net/DTD/sodipodi-0.dtd"
   xmlns:inkscape="http://www.inkscape.org/namespaces/inkscape"
   width="128"
   height="128"
   viewBox="0 0 33.866666 33.866668"
   version="1.1"
   id="svg8"
   inkscape:version="1.0.1 (c497b03c, 2020-09-10)"
   sodipodi:docname="goal_12.svg">
  <defs
     id="defs2" />
  <sodipodi:namedview
     id="base"
     pagecolor="#ffffff"
     bordercolor="#666666"
     borderopacity="1.0"
     inkscape:pageopacity="0.0"
     inkscape:pageshadow="2"
     inkscape:zoom="1.5325347"
     inkscape:cx="245.41398"
     inkscape:cy="87.855761"
     inkscape:document-units="mm"
     inkscape:current-layer="layer1"
     inkscape:document-rotation="0"
     showgrid="false"
     inkscape:snap-global="false"
     units="px"
     inkscape:window-width="1440"
     inkscape:window-height="872"
     inkscape:window-x="0"
     inkscape:window-y="28"
     inkscape:window-maximized="0" />
  <metadata
     id="metadata5">
    <rdf:RDF>
      <cc:Work
         rdf:about="">
        <dc:format>image/svg+xml</dc:format>
        <dc:type
           rdf:resource="http://purl.org/dc/dcmitype/StillImage" />
        <dc:title></dc:title>
      </cc:Work>
    </rdf:RDF>
  </metadata>
  <g
     inkscape:label="Layer 1"
     inkscape:groupmode="layer"
     id="layer1">
    <circle
       style="fill:none;stroke:#ff8200;stroke-width:1.05833;stroke-linecap:round;stroke-miterlimit:4;stroke-dasharray:none;stroke-opacity:1"
       id="path833"
       cx="16.933332"
       cy="16.933332"
       r="15.688075" />
    <path
       style="opacity:1;fill:#ff8200;fill-opacity:1;stroke-width:0.0846667"
       d="m 22.714711,23.198526 c -1.593187,-0.243559 -2.596635,-0.909268 -3.272091,-1.391263 -1.854097,-1.401361 -2.513389,-2.734121 -3.312635,-4.211318 -1.148492,-2.122688 -2.73116,-4.970602 -5.578185,-4.975563 -2.8470248,-0.005 -4.0186188,2.117346 -4.0210268,4.366753 -0.0024,2.249406 1.144614,3.162138 2.136022,3.710148 0.991408,0.54801 2.0548078,0.560174 3.1697648,0.204928 0.746797,-0.237945 0.779701,-0.313371 0.323308,-0.741136 -0.20922,-0.196097 -0.380401,-0.387878 -0.380401,-0.426179 0,-0.159038 0.299658,-0.270043 2.06643,-0.765489 1.523247,-0.427156 1.873893,-0.500296 1.962343,-0.409319 0.153222,0.1576 -0.460728,3.95268 -0.659756,4.078224 -0.103917,0.06555 -0.233025,0.0019 -0.57248,-0.282331 L 14.1377,21.989012 13.826417,22.17709 c -1.063237,0.64241 -2.239447,0.939524 -3.37688,0.937297 -1.1374328,-0.0022 -1.5275338,-0.05026 -2.7322298,-0.644945 -1.204696,-0.594688 -2.529441,-1.833968 -2.933516,-3.408758 -0.404075,-1.57479 -0.361465,-2.963948 -0.04466,-4.228103 0.316804,-1.264155 1.179627,-2.724029 2.934026,-3.573672 1.754399,-0.849643 4.2494108,-1.045064 6.2572788,0.342407 2.007868,1.387471 2.938422,3.105541 4.326054,5.677154 1.387632,2.571612 2.509825,2.955814 3.234859,3.391921 0.725034,0.436107 1.829543,0.699251 2.922652,0.528817 1.09311,-0.170434 2.398024,-1.342349 2.663762,-2.503518 0.265738,-1.161168 0.263479,-2.800988 0.03446,-3.501132 -0.229019,-0.700144 -1.180806,-1.912418 -2.249777,-2.237716 -1.068971,-0.325297 -2.50346,-0.660944 -3.901965,0.395518 -1.398505,1.056462 -1.677918,1.584611 -1.885701,1.831092 -0.207783,0.246481 -0.347902,0.378502 -0.532892,0.249083 -0.18499,-0.12942 -0.917769,-1.437981 -0.919332,-1.65027 -0.0016,-0.212289 1.453569,-1.666657 2.210201,-2.157334 0.756632,-0.490676 1.865594,-0.928722 2.943277,-1.011827 1.077682,-0.0831 2.83207,0.245755 3.863289,0.909915 1.031219,0.66416 1.371525,1.044906 1.844307,1.890804 0.472781,0.845897 0.960315,2.016096 0.88396,3.795183 -0.07635,1.779086 -0.66856,3.4217 -1.797714,4.563546 -1.524765,1.380725 -3.261978,1.669533 -4.855165,1.425974 z"
       id="path1354"
       sodipodi:nodetypes="zcszzzssssssccszzzzzzzzzzszzzzzzzzzzcz" />
  </g>
</svg>
