<?xml version="1.0" encoding="UTF-8" standalone="no"?>
<svg
   xmlns:dc="http://purl.org/dc/elements/1.1/"
   xmlns:cc="http://creativecommons.org/ns#"
   xmlns:rdf="http://www.w3.org/1999/02/22-rdf-syntax-ns#"
   xmlns:svg="http://www.w3.org/2000/svg"
   xmlns="http://www.w3.org/2000/svg"
   xmlns:sodipodi="http://sodipodi.sourceforge.net/DTD/sodipodi-0.dtd"
   xmlns:inkscape="http://www.inkscape.org/namespaces/inkscape"
   width="64"
   height="64"
   viewBox="0 0 16.933333 16.933334"
   version="1.1"
   id="svg908"
   inkscape:version="1.0.1 (c497b03c, 2020-09-10)"
   sodipodi:docname="water_icon.svg">
  <defs
     id="defs902" />
  <sodipodi:namedview
     id="base"
     pagecolor="#ffffff"
     bordercolor="#666666"
     borderopacity="1.0"
     inkscape:pageopacity="0.0"
     inkscape:pageshadow="2"
     inkscape:zoom="1.8175"
     inkscape:cx="137.77108"
     inkscape:cy="152.32672"
     inkscape:document-units="mm"
     inkscape:current-layer="layer1"
     inkscape:document-rotation="0"
     showgrid="false"
     units="px"
     inkscape:window-width="1252"
     inkscape:window-height="957"
     inkscape:window-x="0"
     inkscape:window-y="25"
     inkscape:window-maximized="0" />
  <metadata
     id="metadata905">
    <rdf:RDF>
      <cc:Work
         rdf:about="">
        <dc:format>image/svg+xml</dc:format>
        <dc:type
           rdf:resource="http://purl.org/dc/dcmitype/StillImage" />
        <dc:title></dc:title>
      </cc:Work>
    </rdf:RDF>
  </metadata>
  <g
     inkscape:label="Layer 1"
     inkscape:groupmode="layer"
     id="layer1">
    <path
       id="path1521"
       style="opacity:1;fill:#000000;stroke:none;stroke-width:0.264583;stroke-linecap:round;stroke-linejoin:round;stroke-dasharray:0.79375, 0.79375"
       d="m 8.4666663,1.0601193 c -2.078124,1.95645 -4.9999028,6.8346327 -4.9999018,9.8133417 9e-7,2.978719 2.2385718,4.999753 4.9999018,4.999753 2.7613317,0 4.9999027,-2.021034 4.9999027,-4.999753 0,-2.978709 -3.045997,-7.8879455 -4.9999027,-9.8133417 z M 5.3865296,8.35114 a 0.25550769,0.25550769 0 0 1 0.012006,0 0.25550769,0.25550769 0 0 1 0.090737,0.018876 A 0.25550769,0.25550769 0 0 1 5.62896,8.7036453 C 5.0575428,10.097108 5.0531448,11.234762 5.375465,12.103376 c 0.3223201,0.868615 0.9749409,1.481307 1.775401,1.810164 a 0.25550769,0.25550769 0 0 1 0.1390627,0.333476 0.25550769,0.25550769 0 0 1 -0.3334712,0.139067 C 6.0384328,14.008915 5.2702826,13.288623 4.8965364,12.281421 4.5227902,11.274209 4.5473381,9.9935021 5.1558004,8.5097049 A 0.25550769,0.25550769 0 0 1 5.3865335,8.3511496 Z" />
  </g>
</svg>
